<svg width="1200" height="412" viewBox="0 0 1200 412" xmlns="http://www.w3.org/2000/svg" xmlns:xlink="http://www.w3.org/1999/xlink" role="img" aria-label="technology toolkit"><defs>
    <filter id="fiber" x="0" y="0" width="100%" height="100%">
      <feTurbulence type="fractalNoise" baseFrequency="0.82" numOctaves="4" />
      <feColorMatrix type="saturate" values="0" />
    </filter>
    <pattern id="tooth" width="7" height="7" patternTransform="rotate(38)"
             patternUnits="userSpaceOnUse">
      <line x1="0" y1="0" x2="0" y2="7" stroke="#ffffff" stroke-width="1"
            stroke-opacity="0.13" />
    </pattern>
    <style>
      /* An SVG embedded through &lt;img&gt; restarts its timeline every time the
         host page re-rasterises, so nothing that carries meaning is allowed to
         depend on an animation finishing. Text animates on transform only --
         worst case a label sits a few pixels low, never invisible. */
      @keyframes stroke { from { stroke-dashoffset: 1; } to { stroke-dashoffset: 0; } }
      @keyframes rise { from { transform: translateY(10px); } to { transform: translateY(0); } }
      @keyframes settle { from { transform: translateY(16px); } to { transform: translateY(0); } }
      @keyframes breathe { 0%, 100% { opacity: 0.35; } 50% { opacity: 1; } }
      @keyframes press { from { transform: scale(0.82) rotate(-7deg); }
                          to { transform: scale(1) rotate(0deg); } }
      .br path { stroke-dasharray: 1; animation: stroke 2.4s ease-out backwards; }
      .rg { animation: settle 1.1s cubic-bezier(.2,.75,.3,1) backwards; }
      .tx { animation: rise 0.7s cubic-bezier(.2,.7,.3,1) backwards; }
      .sp { animation: breathe 3.6s ease-in-out infinite; }
      .seal { transform-box: fill-box; transform-origin: center;
               animation: press 0.9s cubic-bezier(.2,1.2,.35,1) backwards; }
      @media (prefers-reduced-motion: reduce) {
        .br path, .rg, .tx, .sp, .seal { animation: none; }
      }
    </style>
    
  </defs><rect width="1200" height="412" rx="14" fill="#fffffe" />
  <rect width="1200" height="412" rx="14" filter="url(#fiber)" opacity="0.035" />
  <rect x="24" y="21" width="3" height="12" rx="1.5" fill="#bf2a22" />
  <text x="36" y="31" fill="#1a1816" font-size="12" font-family="JetBrains Mono, SFMono-Regular, Consolas, Liberation Mono, Menlo, monospace"
        letter-spacing="2.4" opacity="0.88">TOOLKIT &#183; TECHNOLOGY</text><text x="1176" y="31" fill="#a8a096" font-size="11.5" font-family="JetBrains Mono, SFMono-Regular, Consolas, Liberation Mono, Menlo, monospace" text-anchor="end">legend</text>
  <line x1="24" y1="45" x2="1176" y2="45" stroke="#e2ddd5" stroke-width="1" />
  <g class="tx" style="animation-delay:0.00s"><rect x="196.0" y="60" width="94" height="86" rx="11" fill="#f6f4f0" stroke="#3776AB" stroke-opacity="0.32" stroke-width="1" /><rect x="222.0" y="137" width="42" height="3" rx="1.5" fill="#3776AB" fill-opacity="0.9" /><svg x="228.0" y="73.0" width="30" height="30" viewBox="0 0 128 128" overflow="visible"><linearGradient id="python-original-a" gradientUnits="userSpaceOnUse" x1="70.252" y1="1237.476" x2="170.659" y2="1151.089" gradientTransform="matrix(.563 0 0 -.568 -29.215 707.817)"><stop offset="0" stop-color="#5A9FD4"/><stop offset="1" stop-color="#306998"/></linearGradient><linearGradient id="python-original-b" gradientUnits="userSpaceOnUse" x1="209.474" y1="1098.811" x2="173.62" y2="1149.537" gradientTransform="matrix(.563 0 0 -.568 -29.215 707.817)"><stop offset="0" stop-color="#FFD43B"/><stop offset="1" stop-color="#FFE873"/></linearGradient><path fill="url(#python-original-a)" d="M63.391 1.988c-4.222.02-8.252.379-11.8 1.007-10.45 1.846-12.346 5.71-12.346 12.837v9.411h24.693v3.137H29.977c-7.176 0-13.46 4.313-15.426 12.521-2.268 9.405-2.368 15.275 0 25.096 1.755 7.311 5.947 12.519 13.124 12.519h8.491V67.234c0-8.151 7.051-15.34 15.426-15.34h24.665c6.866 0 12.346-5.654 12.346-12.548V15.833c0-6.693-5.646-11.72-12.346-12.837-4.244-.706-8.645-1.027-12.866-1.008zM50.037 9.557c2.55 0 4.634 2.117 4.634 4.721 0 2.593-2.083 4.69-4.634 4.69-2.56 0-4.633-2.097-4.633-4.69-.001-2.604 2.073-4.721 4.633-4.721z" transform="translate(0 10.26)"/><path fill="url(#python-original-b)" d="M91.682 28.38v10.966c0 8.5-7.208 15.655-15.426 15.655H51.591c-6.756 0-12.346 5.783-12.346 12.549v23.515c0 6.691 5.818 10.628 12.346 12.547 7.816 2.297 15.312 2.713 24.665 0 6.216-1.801 12.346-5.423 12.346-12.547v-9.412H63.938v-3.138h37.012c7.176 0 9.852-5.005 12.348-12.519 2.578-7.735 2.467-15.174 0-25.096-1.774-7.145-5.161-12.521-12.348-12.521h-9.268zM77.809 87.927c2.561 0 4.634 2.097 4.634 4.692 0 2.602-2.074 4.719-4.634 4.719-2.55 0-4.633-2.117-4.633-4.719 0-2.595 2.083-4.692 4.633-4.692z" transform="translate(0 10.26)"/><radialGradient id="python-original-c" cx="1825.678" cy="444.45" r="26.743" gradientTransform="matrix(0 -.24 -1.055 0 532.979 557.576)" gradientUnits="userSpaceOnUse"><stop offset="0" stop-color="#B8B8B8" stop-opacity=".498"/><stop offset="1" stop-color="#7F7F7F" stop-opacity="0"/></radialGradient><path opacity=".444" fill="url(#python-original-c)" d="M97.309 119.597c0 3.543-14.816 6.416-33.091 6.416-18.276 0-33.092-2.873-33.092-6.416 0-3.544 14.815-6.417 33.092-6.417 18.275 0 33.091 2.872 33.091 6.417z"/></svg><text x="243.0" y="126" fill="#1a1816" font-size="11.5" text-anchor="middle" font-family="Inter, Segoe UI, Helvetica Neue, Helvetica, Arial, sans-serif">Python</text></g><g class="tx" style="animation-delay:0.02s"><rect x="299.0" y="60" width="94" height="86" rx="11" fill="#f6f4f0" stroke="#EE4C2C" stroke-opacity="0.32" stroke-width="1" /><rect x="325.0" y="137" width="42" height="3" rx="1.5" fill="#EE4C2C" fill-opacity="0.9" /><svg x="331.0" y="73.0" width="30" height="30" viewBox="0 0 128 128" overflow="visible"><path fill="#EE4C2C" d="M100.1 38.3l-9.2 9.2c15.1 15.1 15.1 39.4 0 54.3-15.1 15.1-39.4 15.1-54.3 0-15.1-15.1-15.1-39.4 0-54.3l24-24 3.4-3.4V2L27.8 38.2C7.7 58.3 7.7 90.8 27.8 111s52.6 20.1 72.4 0c20.1-20.2 20.1-52.5-.1-72.7z"/><circle fill="#EE4C2C" transform="rotate(-88.939 82.069 29.398) scale(.99997)" cx="82.1" cy="29.4" r="6.7"/></svg><text x="346.0" y="126" fill="#1a1816" font-size="11.5" text-anchor="middle" font-family="Inter, Segoe UI, Helvetica Neue, Helvetica, Arial, sans-serif">PyTorch</text></g><g class="tx" style="animation-delay:0.04s"><rect x="402.0" y="60" width="94" height="86" rx="11" fill="#f6f4f0" stroke="#FF6F00" stroke-opacity="0.32" stroke-width="1" /><rect x="428.0" y="137" width="42" height="3" rx="1.5" fill="#FF6F00" fill-opacity="0.9" /><svg x="434.0" y="73.0" width="30" height="30" viewBox="0 0 128 128" overflow="visible"><path d="m61.55 128-21.84-12.68V40.55L6.81 59.56l.08-28.32L61.55 0zM66.46 0v128l21.84-12.68V79.31l16.49 9.53-.1-24.63-16.39-9.36v-14.3l32.89 19.01-.08-28.32z" fill="#ff6f00" /></svg><text x="449.0" y="126" fill="#1a1816" font-size="11.5" text-anchor="middle" font-family="Inter, Segoe UI, Helvetica Neue, Helvetica, Arial, sans-serif">TensorFlow</text></g><g class="tx" style="animation-delay:0.06s"><rect x="505.0" y="60" width="94" height="86" rx="11" fill="#f6f4f0" stroke="#D00000" stroke-opacity="0.32" stroke-width="1" /><rect x="531.0" y="137" width="42" height="3" rx="1.5" fill="#D00000" fill-opacity="0.9" /><svg x="537.0" y="73.0" width="30" height="30" viewBox="0 0 128 128" overflow="visible"><path d="M128 128H0V0h128v128z" style="fill:#d00000"/><path d="M34.1 99.3c0 .1.1.2.1.3l2.2 2.2c.1.1.2.1.3.1h7.5c.1 0 .2-.1.3-.1l2.2-2.2c.1-.1.1-.2.1-.3V75.5c0-.1.1-.2.1-.3l9.5-9.1c.1-.1.2-.1.2 0l24.1 35.6c.1.1.2.1.3.1h10.6c.1 0 .2-.1.3-.2l1.9-3.7v-.3L65.7 56.9c-.1-.1 0-.2 0-.3l25.9-25.8c.1-.1.1-.2.1-.3V30c0-.1 0-.2-.1-.3l-1.5-3.4c0-.1-.1-.2-.2-.2H79.4c-.1 0-.2.1-.3.1L47 58.5c-.1.1-.1 0-.1-.1V28.9c0-.1-.1-.2-.1-.3l-2.2-2.3c-.1-.1-.2-.1-.3-.1h-7.6c-.1 0-.2.1-.3.1l-2.2 2.4c-.1.1-.1.2-.1.3v70.3z" style="fill:#fff"/></svg><text x="552.0" y="126" fill="#1a1816" font-size="11.5" text-anchor="middle" font-family="Inter, Segoe UI, Helvetica Neue, Helvetica, Arial, sans-serif">Keras</text></g><g class="tx" style="animation-delay:0.08s"><rect x="608.0" y="60" width="94" height="86" rx="11" fill="#f6f4f0" stroke="#5C3EE8" stroke-opacity="0.32" stroke-width="1" /><rect x="634.0" y="137" width="42" height="3" rx="1.5" fill="#5C3EE8" fill-opacity="0.9" /><svg x="640.0" y="73.0" width="30" height="30" viewBox="0 0 128 128" overflow="visible"><path d="M112.871 66.602c9.004 5.277 15.055 15.027 15.074 26.191.032 16.805-13.617 30.453-30.48 30.48-16.863.032-30.559-13.57-30.59-30.375-.02-11.164 5.996-20.933 14.984-26.246l8.774 14.778c.219.37.094.847-.262 1.09-3.32 2.25-5.496 6.046-5.488 10.347.012 6.895 5.633 12.477 12.55 12.461 6.919-.012 12.516-5.61 12.504-12.504-.007-4.3-2.195-8.09-5.523-10.328-.355-.242-.484-.719-.266-1.09zm0 0" fill="#128dff"/><path d="M45.477 66.422a30.495 30.495 0 00-14.907-3.867C13.703 62.555.035 76.18.035 92.985c0 16.804 13.668 30.43 30.535 30.43 16.946 0 30.95-14.337 30.524-31.212H43.906c-.453 0-.808.383-.812.832-.043 6.723-5.672 12.434-12.524 12.434-6.922 0-12.527-5.59-12.527-12.485 0-6.894 5.605-12.484 12.527-12.484 1.809 0 3.532.383 5.086 1.074.383.168.836.04 1.047-.316zm0 0" fill="#8bda67"/><path d="M47.945 61.648c-8.992-5.293-15.027-15.054-15.027-26.218C32.918 18.625 46.59 5 63.453 5s30.535 13.625 30.535 30.43c0 11.164-6.035 20.925-15.027 26.218L70.21 46.86c-.219-.37-.094-.847.266-1.09 3.32-2.246 5.503-6.039 5.503-10.34 0-6.894-5.609-12.484-12.527-12.484-6.918 0-12.527 5.59-12.527 12.485 0 4.3 2.183 8.093 5.504 10.34.36.242.484.718.265 1.09zm0 0" fill="#ff2a44"/></svg><text x="655.0" y="126" fill="#1a1816" font-size="11.5" text-anchor="middle" font-family="Inter, Segoe UI, Helvetica Neue, Helvetica, Arial, sans-serif">OpenCV</text></g><g class="tx" style="animation-delay:0.10s"><rect x="711.0" y="60" width="94" height="86" rx="11" fill="#f6f4f0" stroke="#F7931E" stroke-opacity="0.32" stroke-width="1" /><rect x="737.0" y="137" width="42" height="3" rx="1.5" fill="#F7931E" fill-opacity="0.9" /><svg x="743.0" y="73.0" width="30" height="30" viewBox="0 0 128 128" overflow="visible"><path fill="#f89939" d="M98.18 88.13c15.63-15.62 18.23-38.36 5.8-50.78-12.43-12.42-35.17-9.82-50.8 5.8-15.63 15.62-11.11 45.48-5.8 50.78 4.29 4.29 35.17 9.82 50.8-5.8Z"/><path fill="#3499cd" d="M34.04 65.56c-9.07-9.06-22.27-10.57-29.48-3.37-7.21 7.21-5.7 20.4 3.37 29.46 9.07 9.07 26.4 6.44 29.48 3.37 2.49-2.49 5.71-20.4-3.37-29.46Z"/><path fill="#010101" d="M123.82 85.68c-.58 0-.87-.35-.87-1.06 0-.53.35-1.69 1.04-3.46 1.01-2.59 1.52-4.45 1.52-5.58 0-.68-.2-1.25-.6-1.7-.4-.45-.9-.68-1.5-.68-.88 0-1.89.41-3.03 1.24-1.14.83-2.67 2.32-4.6 4.48.28-1.4.88-3.32 1.78-5.76l-4.31.83c-.98 2.12-1.69 4.03-2.13 5.73-.22.83-.38 1.69-.49 2.56-1.35 1.31-2.23 2.1-2.61 2.39-.39.29-.8.43-1.22.43-.39 0-.7-.15-.93-.44-.23-.29-.34-.69-.34-1.18 0-.53.1-1.14.3-1.83s.64-1.99 1.33-3.9l1.64-4.52-1.61.07c-1.46 2.78-3.17 4.28-5.13 4.49.53-1.38.8-2.44.8-3.18 0-.94-.46-1.41-1.38-1.41-1.09 0-1.94.51-2.55 1.54-.62 1.03-.93 2-.93 2.91s.51 1.55 1.52 2c-.66.97-1.4 1.88-2.2 2.74-.95.94-1.69 1.66-2.23 2.13-.55.49-1.06.73-1.52.73-.72 0-1.08-.51-1.08-1.52s.4-2.75 1.2-5.35l1.56-5.18h-.99l-3.61 2c-.59-1.35-1.62-2.03-3.09-2.03-1.17 0-2.51.5-4.03 1.49-1.52.99-2.77 2.28-3.74 3.89-.75 1.24-1.21 2.54-1.38 3.88-1.36 1.36-2.38 2.24-3.06 2.65-.71.42-1.45.63-2.23.63-1.99 0-3.22-1.15-3.69-3.45 5.19-1.52 7.78-3.5 7.78-5.94 0-.92-.33-1.66-.99-2.23-.66-.57-1.54-.85-2.63-.85-2.11 0-4.03 1.01-5.76 3.03-1.57 1.83-2.42 3.86-2.57 6.09-1.43 1.41-2.51 2.34-3.21 2.79-.72.46-1.4.69-2.03.69s-1.13-.3-1.5-.9c-.38-.6-.57-1.41-.57-2.44 0-.46.05-1.3.14-2.53 2.36-2.56 4.09-4.96 5.2-7.21 1.11-2.25 1.66-4.58 1.66-6.98 0-.85-.11-1.52-.33-2.02-.22-.5-.5-.75-.84-.75-.07 0-.18.02-.32.07l-4.49 1.66c-1.53 2.92-2.84 6.11-3.91 9.58-1.07 3.46-1.61 6.43-1.61 8.9 0 1.65.38 2.96 1.16 3.94.77.98 1.79 1.47 3.05 1.47 1.1 0 2.25-.35 3.46-1.05 1.21-.7 2.61-1.79 4.22-3.26s0-.02 0-.02c.19 1.11.65 2.04 1.37 2.8.99 1.02 2.28 1.54 3.88 1.54 1.44 0 2.75-.35 3.94-1.05 1.15-.67 2.44-1.72 3.88-3.11.12 1.04.46 1.94 1.03 2.71.73.97 1.61 1.46 2.64 1.46s2.09-.4 3.09-1.2c1-.8 2.08-2.05 3.26-3.73-.11 3.29.77 4.93 2.63 4.93.74 0 1.52-.27 2.33-.81s2.16-1.71 4.05-3.5c1.64-1.62 2.84-3.14 3.61-4.56 1.04-.18 1.99-.49 2.86-.94-1.78 2.79-2.67 5.02-2.67 6.68 0 .9.25 1.65.74 2.25.49.6 1.1.91 1.82.91 1.57 0 3.8-1.41 6.68-4.2 0 .22-.02.43-.02.65 0 .78.07 1.96.19 3.55l3.91-.92c0-1.06.02-1.9.05-2.53.06-.84.18-1.76.35-2.76.11-.59.38-1.15.81-1.68l.99-1.15c.36-.42.71-.8 1.02-1.13.37-.39.7-.72.99-.99.33-.29.62-.53.87-.69.27-.16.49-.25.65-.25.29 0 .44.19.44.57s-.28 1.26-.83 2.65c-1.04 2.59-1.56 4.52-1.56 5.78 0 .93.24 1.67.73 2.23.48.55 1.12.83 1.91.83 1.94 0 4.28-1.44 7-4.31V82.3c-1.93 2.27-3.32 3.41-4.18 3.41Zm-65.26-8.29c.8-3.91 1.62-6.94 2.45-9.11.83-2.17 1.47-3.26 1.9-3.26.2 0 .37.13.5.4.13.26.19.62.19 1.05 0 1.49-.46 3.26-1.4 5.33-.93 2.06-2.15 3.93-3.64 5.59Zm11.79-.98c.71-1.19 1.45-1.78 2.23-1.78.82 0 1.24.57 1.24 1.7 0 2.29-1.51 3.85-4.53 4.7 0-1.9.35-3.44 1.06-4.62Zm17.48 5.85c-1.04 2.01-2.16 3.01-3.33 3.01-.48 0-.88-.2-1.19-.59-.31-.39-.47-.91-.47-1.55 0-1.68.53-3.53 1.58-5.53 1.05-2 2.17-3 3.35-3 .49 0 .89.18 1.18.56.29.37.44.89.44 1.55 0 1.7-.52 3.55-1.56 5.56Z"/><path fill="#fff" d="M75.46 64.88c.15.21.22.48.22.8s-.09.61-.27.88-.44.49-.79.64c-.34.15-.73.23-1.16.23-.72 0-1.26-.15-1.64-.45s-.62-.74-.72-1.33l.93-.15c.05.37.2.66.43.85.24.2.57.3 1 .3s.75-.09.96-.26c.21-.17.31-.38.31-.62 0-.21-.09-.38-.28-.5-.13-.08-.45-.19-.96-.32-.69-.17-1.16-.32-1.43-.45s-.47-.3-.6-.53-.21-.47-.21-.74c0-.25.06-.47.17-.68.11-.21.27-.38.46-.52.15-.11.34-.2.59-.27.25-.07.52-.11.81-.11.43 0 .81.06 1.14.19.33.12.57.29.73.51.16.21.26.5.32.86l-.92.12c-.04-.28-.16-.51-.36-.67-.2-.16-.48-.24-.85-.24-.43 0-.74.07-.92.21-.18.14-.28.31-.28.5 0 .12.04.23.11.33.08.1.2.18.36.25.09.03.37.11.83.24.66.18 1.12.32 1.39.43.26.11.47.28.62.49Zm4.47 1.44c-.25.23-.55.34-.92.34-.46 0-.83-.17-1.11-.5s-.43-.88-.43-1.62.15-1.27.44-1.6.68-.51 1.15-.51c.31 0 .58.09.8.28.22.19.37.47.46.84l.91-.14c-.11-.56-.35-.99-.73-1.29-.38-.3-.87-.45-1.47-.45-.48 0-.91.11-1.32.34-.4.22-.71.56-.9 1.01-.2.45-.3.97-.3 1.57 0 .92.23 1.63.69 2.12.46.49 1.07.74 1.82.74.6 0 1.11-.18 1.53-.54.41-.36.67-.86.77-1.49l-.92-.12c-.07.47-.22.81-.47 1.04Zm2.19.98h.94v-5.52h-.94v5.52Zm0-6.55h.94v-1.08h-.94v1.08Zm6.73 1.02h-1.21l-2.22 2.25v-4.35h-.94v7.62h.94V65.1l.66-.63 1.83 2.82h1.16l-2.33-3.47 2.11-2.05Zm.96-1.02h.94v-1.08h-.94v1.08Zm0 6.55h.94v-5.52h-.94v5.52Zm4.41-.84c-.17.02-.31.04-.41.04-.14 0-.25-.02-.32-.07s-.13-.11-.16-.18c-.03-.08-.05-.25-.05-.51v-3.23h.94v-.73h-.94v-1.93l-.93.56v1.37h-.69v.73h.69v3.18c0 .56.04.93.11 1.1.08.18.21.32.39.42.19.11.45.16.79.16.21 0 .44-.03.71-.08l-.14-.83Z"/></svg><text x="758.0" y="126" fill="#1a1816" font-size="11.5" text-anchor="middle" font-family="Inter, Segoe UI, Helvetica Neue, Helvetica, Arial, sans-serif">scikit&#8209;learn</text></g><g class="tx" style="animation-delay:0.12s"><rect x="814.0" y="60" width="94" height="86" rx="11" fill="#f6f4f0" stroke="#150458" stroke-opacity="0.32" stroke-width="1" /><rect x="840.0" y="137" width="42" height="3" rx="1.5" fill="#150458" fill-opacity="0.9" /><svg x="846.0" y="73.0" width="30" height="30" viewBox="0 0 128 128" overflow="visible"><path fill="#130754" d="M46.236 7.567h13.99v29.047h-13.99Zm0 59.668h13.99V96.28h-13.99Z"/><path fill="#ffca00" d="M46.236 45.092h13.99v13.705h-13.99Z"/><path fill="#130754" d="M23.763 31.446h13.989V128h-13.99ZM68.245 91.2h13.99v29.046h-13.99Zm0-59.72h13.99v29.047h-13.99Z"/><path fill="#e70488" d="M68.245 69.011h13.99v13.705h-13.99Z"/><path fill="#130754" d="M90.248 0h13.99v96.554h-13.99Z"/></svg><text x="861.0" y="126" fill="#1a1816" font-size="11.5" text-anchor="middle" font-family="Inter, Segoe UI, Helvetica Neue, Helvetica, Arial, sans-serif">Pandas</text></g><g class="tx" style="animation-delay:0.14s"><rect x="917.0" y="60" width="94" height="86" rx="11" fill="#f6f4f0" stroke="#013243" stroke-opacity="0.32" stroke-width="1" /><rect x="943.0" y="137" width="42" height="3" rx="1.5" fill="#013243" fill-opacity="0.9" /><svg x="949.0" y="73.0" width="30" height="30" viewBox="0 0 128 128" overflow="visible"><path fill="#4DABCF" d="m55.012 26.006-21.38-10.789L10.154 26.93l21.969 11.027Zm9.808 4.951L87.241 42.28 63.982 53.955l-22-11.043Zm29.948-15.581 23.037 11.552L97.2 37.272 74.735 25.938ZM84.853 10.4 64.113 0 43.598 10.24 64.97 21.014ZM68.64 99.702V128l25.122-12.537-.023-28.31ZM93.727 77.27l-.028-28.012-25.06 12.458V89.74Zm30.158-5.246v28.41l-21.43 10.69-.017-28.279zm0-9.935V34.25l-21.47 10.673.016 28.068z"/><path fill="#4c75cf" d="m59.77 61.716-16.918-8.512V89.97s-20.7-44.033-22.612-47.99c-.246-.513-1.263-1.07-1.522-1.209-3.731-1.947-14.603-7.45-14.603-7.45v64.977l15.04 8.063V72.382s20.478 39.346 20.689 39.78c.214.429 2.257 4.57 4.459 6.028 2.92 1.939 15.458 9.477 15.458 9.477z" /></svg><text x="964.0" y="126" fill="#1a1816" font-size="11.5" text-anchor="middle" font-family="Inter, Segoe UI, Helvetica Neue, Helvetica, Arial, sans-serif">NumPy</text></g><g class="tx" style="animation-delay:0.16s"><rect x="1020.0" y="60" width="94" height="86" rx="11" fill="#f6f4f0" stroke="#F37626" stroke-opacity="0.32" stroke-width="1" /><rect x="1046.0" y="137" width="42" height="3" rx="1.5" fill="#F37626" fill-opacity="0.9" /><svg x="1052.0" y="73.0" width="30" height="30" viewBox="0 0 128 128" overflow="visible"><path d="M109.766 7.281a7.691 7.691 0 01-1.09 4.282 7.583 7.583 0 01-3.262 2.949 7.49 7.49 0 01-4.34.62 7.525 7.525 0 01-3.953-1.913A7.642 7.642 0 0195.137 5a7.606 7.606 0 012.629-3.531 7.509 7.509 0 014.136-1.461 7.51 7.51 0 015.422 1.996 7.627 7.627 0 012.438 5.273zm0 0" fill="#767677"/><path d="M65.758 96.79c-20.098 0-37.649-7.364-46.766-18.267a49.95 49.95 0 0018.102 24.254 49.251 49.251 0 0028.676 9.215 49.279 49.279 0 0028.675-9.215 49.917 49.917 0 0018.094-24.254C103.406 89.426 85.855 96.79 65.758 96.79zm0 0M65.75 25.883c20.098 0 37.652 7.367 46.766 18.265a49.95 49.95 0 00-18.102-24.253 49.27 49.27 0 00-28.672-9.22 49.27 49.27 0 00-28.672 9.22A49.909 49.909 0 0018.97 44.148C28.102 33.27 45.652 25.883 65.75 25.883zm0 0" fill="#f37726"/><path d="M38.164 117.984a9.671 9.671 0 01-1.371 5.399 9.5 9.5 0 01-9.59 4.504 9.405 9.405 0 01-4.98-2.418 9.671 9.671 0 01-2.809-4.797 9.73 9.73 0 01.313-5.567 9.624 9.624 0 013.328-4.453 9.466 9.466 0 0112.043.688 9.63 9.63 0 013.066 6.648zm0 0" fill="#989798"/><path d="M21.285 23.418a5.53 5.53 0 01-3.14-.816 5.627 5.627 0 01-2.618-5.672 5.612 5.612 0 011.407-2.95 5.593 5.593 0 012.789-1.664 5.46 5.46 0 013.238.184 5.539 5.539 0 012.586 1.969 5.66 5.66 0 01-.399 7.129 5.557 5.557 0 01-3.867 1.82zm0 0" fill="#6f7070"/></svg><text x="1067.0" y="126" fill="#1a1816" font-size="11.5" text-anchor="middle" font-family="Inter, Segoe UI, Helvetica Neue, Helvetica, Arial, sans-serif">Jupyter</text></g><text x="26" y="107.0" fill="#5c564f" font-size="9.50" font-family="JetBrains Mono, SFMono-Regular, Consolas, Liberation Mono, Menlo, monospace" letter-spacing="1.40">AI &#38; MACHINE LEARNING</text><line x1="26" y1="163.0" x2="1174" y2="163.0" stroke="#e2ddd5" stroke-width="1" /><g class="tx" style="animation-delay:0.18s"><rect x="196.0" y="180" width="94" height="86" rx="11" fill="#f6f4f0" stroke="#1C3C3C" stroke-opacity="0.32" stroke-width="1" /><rect x="222.0" y="257" width="42" height="3" rx="1.5" fill="#1C3C3C" fill-opacity="0.9" /><text x="243.0" y="225.0" fill="#1C3C3C" font-size="12.9" font-weight="700" letter-spacing="0.4" text-anchor="middle" font-family="Inter, Segoe UI, Helvetica Neue, Helvetica, Arial, sans-serif">LangChain</text></g><g class="tx" style="animation-delay:0.20s"><rect x="299.0" y="180" width="94" height="86" rx="11" fill="#f6f4f0" stroke="#4267B2" stroke-opacity="0.32" stroke-width="1" /><rect x="325.0" y="257" width="42" height="3" rx="1.5" fill="#4267B2" fill-opacity="0.9" /><text x="346.0" y="225.0" fill="#4267B2" font-size="17.0" font-weight="700" letter-spacing="0.4" text-anchor="middle" font-family="Inter, Segoe UI, Helvetica Neue, Helvetica, Arial, sans-serif">FAISS</text></g><g class="tx" style="animation-delay:0.22s"><rect x="402.0" y="180" width="94" height="86" rx="11" fill="#f6f4f0" stroke="#C8A200" stroke-opacity="0.32" stroke-width="1" /><rect x="428.0" y="257" width="42" height="3" rx="1.5" fill="#C8A200" fill-opacity="0.9" /><text x="449.0" y="225.0" fill="#C8A200" font-size="14.5" font-weight="700" letter-spacing="0.4" text-anchor="middle" font-family="Inter, Segoe UI, Helvetica Neue, Helvetica, Arial, sans-serif">Power BI</text></g><g class="tx" style="animation-delay:0.24s"><rect x="505.0" y="180" width="94" height="86" rx="11" fill="#f6f4f0" stroke="#11557C" stroke-opacity="0.32" stroke-width="1" /><rect x="531.0" y="257" width="42" height="3" rx="1.5" fill="#11557C" fill-opacity="0.9" /><svg x="537.0" y="193.0" width="30" height="30" viewBox="0 0 128 128" overflow="visible"><path fill="#fff" d="M63.975 125.09c-16.317 0-31.658-6.355-43.197-17.893S2.885 80.318 2.885 64 9.24 32.341 20.778 20.803 47.657 2.91 63.975 2.91s31.659 6.355 43.198 17.893S125.065 47.682 125.065 64s-6.355 31.659-17.893 43.198-26.879 17.892-43.197 17.892z"/><path fill="none" stroke="#858585" stroke-dasharray=".407,.8139" stroke-linecap="round" stroke-linejoin="round" stroke-miterlimit="7.976" stroke-width=".856" d="M63.974 63.784h61.09m-61.09 0 43.197-43.196M63.974 63.784V2.694m0 61.09L20.778 20.588m43.196 43.196H2.884m61.09 0-43.196 43.197m43.196-43.197v61.09m0-61.09 43.197 43.197" opacity=".9"/><g fill="none" stroke="#818181" stroke-dasharray=".407,.8139" stroke-linecap="square" stroke-linejoin="round" stroke-miterlimit="199.409" stroke-width=".856"><path d="m70.764 63.784-.202-1.643-.593-1.543-.949-1.355-1.25-1.085-1.474-.751-1.61-.373-1.654.03-1.599.429-1.447.801-1.209 1.128-.9 1.388-.539 1.565-.145 1.649.259 1.634.646 1.523.994 1.321 1.286 1.041 1.5.698 1.623.316 1.653-.086 1.582-.484 1.418-.852 1.17-1.17.851-1.417.484-1.582.105-1.182h0" opacity=".9"/><path d="m84.339 63.784-.198-2.833-.59-2.779-.973-2.669-1.333-2.509-1.67-2.299-1.973-2.044-2.238-1.75-2.461-1.42-2.633-1.064-2.758-.688-2.825-.297-2.84.099-2.797.494-2.702.877-2.554 1.246-2.356 1.588-2.111 1.901-1.826 2.177-1.506 2.408-1.155 2.596-.782 2.73-.396 2.814v2.842l.396 2.814.782 2.73 1.155 2.596 1.506 2.408 1.826 2.177 2.111 1.902 2.356 1.588 2.554 1.245 2.702.877 2.798.494 2.84.1 2.824-.298 2.758-.687 2.633-1.065 2.461-1.42 2.238-1.75 1.973-2.044 1.67-2.299 1.333-2.51.972-2.668.591-2.779.198-2.83h0" opacity=".9"/><path d="m97.914 63.784-.185-3.548-.555-3.509-.92-3.43-1.272-3.317-1.613-3.166-1.935-2.978-2.236-2.762-2.512-2.511-2.761-2.236-2.979-1.935-3.165-1.613-3.317-1.273-3.43-.919-3.51-.555-3.548-.185-3.548.185-3.508.555-3.43.92-3.318 1.272-3.165 1.613-2.979 1.935-2.761 2.236-2.512 2.511-2.236 2.762-1.935 2.978-1.613 3.166-1.273 3.317-.919 3.43-.555 3.509-.185 3.548.185 3.548.555 3.509.92 3.43 1.272 3.317 1.613 3.166 1.935 2.978 2.236 2.762 2.512 2.511 2.761 2.236 2.979 1.935 3.165 1.614 3.317 1.272 3.43.92 3.51.555 3.547.185 3.549-.185 3.508-.556 3.43-.919 3.318-1.272 3.165-1.614 2.979-1.935 2.761-2.236 2.512-2.511 2.236-2.762 1.935-2.978 1.613-3.166 1.272-3.317.92-3.43.555-3.509.185-3.548h0" opacity=".9"/><path d="m111.489 63.784-.26-4.966-.78-4.911-1.286-4.804-1.782-4.642-2.257-4.432-2.709-4.171-3.13-3.866-3.516-3.517-3.866-3.13-4.171-2.709L83.3 20.38l-4.642-1.781-4.804-1.287-4.912-.779-4.966-.26-4.966.26-4.91.779-4.805 1.287-4.642 1.781-4.432 2.257-4.17 2.71-3.867 3.13-3.517 3.516-3.13 3.866-2.708 4.17-2.257 4.433-1.782 4.642-1.287 4.804-.778 4.911-.261 4.966.26 4.966.779 4.911 1.287 4.805 1.782 4.642 2.257 4.431 2.709 4.171 3.13 3.866 3.516 3.517 3.866 3.13 4.171 2.709 4.432 2.257 4.642 1.781 4.804 1.288 4.911.778 4.966.26 4.966-.26 4.912-.778 4.804-1.288 4.642-1.781 4.432-2.257 4.17-2.71 3.867-3.129 3.516-3.517 3.13-3.866 2.71-4.17 2.256-4.432 1.782-4.642 1.287-4.805.778-4.91.261-4.967h0" opacity=".9"/></g><path fill="#11557c" d="M64 126c-16.56 0-32.13-6.449-43.84-18.159S2 80.561 2 64s6.449-32.13 18.159-43.841S47.439 2 64 2s32.131 6.449 43.841 18.159S126 47.439 126 64s-6.449 32.131-18.159 43.841S80.561 126 64 126zM64 3.82c-16.074 0-31.187 6.26-42.553 17.626C10.08 32.813 3.82 47.925 3.82 64c0 16.075 6.26 31.188 17.626 42.554S47.925 124.18 64 124.18c16.075 0 31.188-6.26 42.554-17.626S124.18 80.075 124.18 64c0-16.075-6.26-31.187-17.626-42.554C95.187 10.08 80.075 3.82 64 3.82z"/><path fill="#004cff" d="m63.975 63.784.129-.042.129-.042.129-.042.129-.042.129-.042.129-.042.129-.042.129-.042.129-.042.129-.042.129-.042.129-.042.129-.042.129-.042.129-.042.129-.042.129-.042.129-.042.129-.042.129-.042.129-.042.129-.042.129-.042.129-.042.129-.042.129-.042.129-.042.129-.042.129-.042.129-.042.129-.042.129-.042.129-.042.129-.042.129-.042.129-.042.129-.042.129-.042.129-.042.129-.042.129-.042.129-.042.129-.042.129-.042.129-.042.129-.042.129-.042.129-.042.129-.042.129-.042.129-.042.129-.042.129-.042.129-.042.129-.042.129-.042.129-.042.129-.042.129-.042.129-.042.129-.042.129-.042.129-.042.129-.042.129-.042.129-.042.129-.042.129-.042.129-.042.129-.042.129-.042.129-.042.129-.042.129-.042.129-.042.129-.042.129-.042.129-.042.129-.042.129-.042.129-.042.129-.042.129-.042.129-.042.129-.042.129-.042.129-.042.129-.042.129-.042.129-.042.129-.042.129-.042.129-.042.129-.042.129-.042.129-.042.129-.042.129-.042.129-.042.129-.042.025.046.013.041.013.041.013.041.013.041.013.041.012.041.012.041.011.039.012.041.012.041.012.041.012.041.011.041.011.041.011.041.011.041.011.041.011.041.011.041.011.041.01.041.01.041.01.041.01.041.01.041.01.042.01.042.009.042.009.042.009.042.009.042.009.042.009.042.009.042.009.042.009.042.008.042.008.042.008.042.008.042.008.042.008.042.007.042.007.042.007.042.007.042.007.042.007.042.007.042.007.042.007.042.006.042.006.042.006.042.006.042.006.042.006.042.006.042.005.042.005.042.005.042.005.042.005.042.005.042.005.042.005.042.004.042.004.042.004.042.004.042.004.042.004.042.004.043.003.043.003.043.003.043.003.043.003.043.003.043.003.043.003.043.002.043.002.043.002.043.002.043.002.043.002.043.002.043.001.043.001.043.001.043.001.043.001.043.001.043.001.043v.172H64.11l-.135-.004z" opacity=".6"/><path fill="#ceff29" d="m63.975 63.784.143-.381.143-.381.143-.381.143-.381.143-.381.143-.381.143-.381.143-.381.143-.381.143-.381.143-.381.143-.381.143-.381.143-.381.143-.381.143-.381.143-.381.143-.381.143-.381.143-.381.143-.381.143-.381.143-.381.143-.381.143-.381.143-.381.143-.381.143-.381.143-.381.143-.381.143-.381.143-.381.143-.381.143-.381.143-.381.143-.381.143-.381.143-.381.143-.381.143-.381.143-.381.143-.381.143-.381.143-.381.143-.381.143-.381.143-.381.143-.381.143-.381.143-.381.143-.381.143-.381.143-.381.143-.381.143-.381.143-.381.143-.381.143-.381.143-.381.143-.381.143-.381.143-.381.143-.381.143-.381.143-.381.143-.381.143-.381.143-.381.143-.381.143-.381.143-.381.143-.381.143-.381.143-.381.143-.381.143-.381.143-.381.143-.381.143-.381.143-.381.143-.381.143-.381.143-.381.143-.381.143-.381.143-.381.143-.381.143-.381.143-.381.143-.381.143-.381.143-.381.143-.381.143-.381.143-.381.143-.381.143-.381.154-.411.143-.381.143-.381.12.045.12.046.119.046.119.046.119.047.119.047.119.047.119.048.119.048.118.049.118.049.118.049.118.05.118.05.118.05.117.051.117.051.117.051.117.052.117.052.117.053.116.053.116.053.116.054.116.054.116.054.116.055.115.055.115.055.115.056.115.056.115.057.115.057.114.057.114.058.114.058.114.058.114.059.113.059.113.059.113.06.113.06.113.061.113.061.112.061.112.062.112.062.112.062.112.063.111.063.111.063.111.064.111.064.111.064.11.065.11.065.11.065.11.066.11.066.109.066.109.067.109.067.109.067.108.068.108.068.108.068.108.069.108.069.107.069.107.07.107.07.107.071.107.071.106.071.106.072.106.072.106.072.105.073.105.073.105.073.105.074.104.074.104.074.104.074.104.075.104.075.103.075.103.076.103.076.103.076.102.077.102.077.102.077.102.078.101.078.101.078.101.079.101.079.1.079.1.08-.254.318-.254.318-.254.318-.254.318-.254.318-.254.318-.254.318-.254.318-.254.318-.254.318-.254.318-.254.318-.254.318-.252.324-.254.318-.254.318-.254.318-.254.318-.254.318-.253.32-.254.318-.254.318-.254.318-.254.318-.254.318-.254.318-.254.318-.254.318-.254.318-.254.318-.254.318-.254.318-.254.318-.254.318-.254.318-.254.318-.254.318-.254.318-.254.318-.254.318-.254.318-.254.318-.254.318-.254.318-.254.318-.254.318-.254.318-.254.318-.254.318-.254.318-.254.318-.252.332-.254.318-.254.318-.254.318-.254.318-.254.318-.254.32-.254.318-.254.318-.254.318-.254.318-.254.318-.254.318-.254.318-.254.318-.254.318-.254.318-.254.318-.254.318-.254.318-.254.318-.254.318-.254.318-.254.318-.254.318-.254.318-.254.318-.254.318-.254.318-.252.328-.254.318-.254.318-.254.318-.254.318-.254.318-.254.318-.254.318-.254.318-.254.318-.254.318-.254.318-.254.318-.254.318-.254.318-.254.318-.254.318-.254.318-.254.318-.253.326z" opacity=".6"/><path fill="#ff6800" d="m63.975 63.784-.348-.417-.348-.417-.348-.417-.348-.417-.348-.417-.348-.417-.348-.417-.348-.417-.348-.417-.348-.417-.348-.417-.348-.417-.348-.417-.348-.417-.348-.417-.348-.417-.348-.417-.348-.417-.348-.417-.348-.417-.348-.417-.348-.417-.348-.417-.348-.417-.348-.417-.348-.417-.348-.417-.348-.417-.348-.417-.348-.417-.348-.417-.348-.417-.348-.417-.348-.417-.348-.417-.348-.417-.348-.417-.348-.417-.348-.417-.348-.417-.348-.417-.348-.417-.348-.417-.348-.417-.348-.417-.348-.417-.348-.417-.348-.417-.348-.417-.348-.417-.348-.417-.348-.417-.348-.417-.348-.417-.348-.417-.348-.417-.348-.417-.348-.417-.348-.417-.348-.417-.348-.417-.348-.417-.348-.417-.348-.417-.348-.417-.348-.417-.348-.417-.348-.417-.348-.417-.348-.417-.348-.417-.348-.417-.348-.417-.348-.417-.348-.417-.348-.417-.348-.417-.348-.417-.348-.417-.348-.417-.348-.417-.348-.417-.348-.417-.348-.417-.348-.417-.348-.417-.348-.417-.348-.417-.348-.417-.348-.417-.348-.417-.348-.417-.348-.417-.349-.403-.348-.417-.348-.417-.348-.417-.348-.417-.348-.417-.348-.417.197-.164.198-.163.198-.162.199-.161.2-.16.201-.159.201-.158.202-.157.203-.156.204-.155.204-.154.205-.153.206-.152.206-.151.207-.15.208-.149.209-.148.209-.147.21-.146.211-.145.211-.144.212-.143.213-.142.213-.141.214-.14.215-.139.215-.138.216-.137.217-.136.217-.135.218-.134.219-.133.219-.132.22-.131.22-.13.221-.129.222-.128.222-.127.223-.126.223-.125.224-.124.225-.123.225-.122.226-.121.226-.12.227-.118.227-.117.228-.116.228-.115.229-.114.23-.113.23-.112.231-.111.231-.11.232-.109.232-.108.233-.107.233-.105.234-.104.234-.103.235-.102.235-.101.236-.1.236-.099.237-.098.237-.097.237-.095.238-.094.238-.093.239-.092.239-.091.24-.09.24-.089.24-.088.241-.086.241-.085.242-.084.242-.083.242-.082.243-.081.243-.08.244-.078.244-.077.244-.076.245-.075.245-.074.245-.073.246-.072.246-.07.246-.069.247-.068.247-.067.247-.066.248-.065.248-.063.248-.062.249-.061.249-.06.249-.059.249-.058.121.529.121.529.121.529.121.529.121.529.121.529.121.529.121.529.121.529.121.529.121.529.121.529.121.529.121.529.121.529.121.529.121.529.121.529.121.529.121.529.121.529.121.529.121.529.121.529.121.529.121.529.121.529.121.529.121.529.121.529.121.529.121.529.121.529.113.543.121.529.121.529.121.529.121.529.121.529.121.529.121.529.121.529.121.529.121.529.121.529.121.529.121.529.121.529.121.529.121.529.121.529.121.529.121.529.121.529.121.529.121.529.121.529.121.529.121.529.121.529.121.529.121.529.121.529.121.529.121.529.121.529.121.529.121.529.121.529.121.529.121.529.121.529.121.529.121.529.121.529.121.529.121.529.121.529.121.529.121.529.121.529.121.529.121.529.121.529.121.529.121.529.121.529.121.529.121.529.121.529.121.529.121.529.121.529.121.529.121.529.121.529.121.529.121.529.121.529.11.556z" opacity=".6"/><path fill="#ffc400" d="m63.975 63.784-.468.085-.468.085-.468.085-.468.085-.468.085-.468.085-.468.085-.468.085-.468.085-.463.083-.468.085-.468.085-.468.085-.468.085-.468.085-.468.085-.468.085-.468.085-.468.085-.468.085-.468.085-.462.083-.468.085-.468.085-.468.085-.466.085-.468.085-.468.085-.468.085-.468.085-.468.085-.468.085-.468.085-.468.085-.468.085-.468.085-.468.085-.468.085-.468.085-.468.085-.468.085-.468.085-.468.085-.468.085-.468.085-.468.085-.468.085-.468.085-.468.085-.456.081-.468.085-.468.085-.468.085-.468.085-.468.085-.468.085-.468.085-.468.085-.468.085-.468.085-.468.085-.468.085-.468.085-.468.085-.468.085-.468.085-.468.085-.468.085-.468.085-.468.085-.468.085-.468.085-.468.085-.468.085-.468.085-.468.085-.468.085-.468.085-.468.085-.468.085-.468.085-.468.085-.468.085-.468.085-.468.085-.45.079-.468.085-.468.085-.468.085-.466.085-.468.085-.468.085-.468.085-.468.085-.468.085-.468.085-.468.085-.468.085-.468.085-.468.085-.052-.294-.051-.294-.049-.295-.047-.295-.045-.295-.038-.297-.041-.296-.039-.296-.038-.296-.036-.296-.034-.297-.032-.297-.03-.297-.028-.297-.026-.297-.024-.298-.023-.298-.021-.298-.019-.298-.017-.298-.015-.298-.013-.298-.011-.298-.009-.298-.008-.298-.006-.298-.004-.299-.002-.299v-.299l.002-.299.004-.299.005-.298.007-.298.009-.298.011-.298.013-.298.015-.298.017-.298.019-.298.02-.298.022-.298.024-.298.026-.297.028-.297.03-.297.032-.297.034-.297.035-.296.037-.296.039-.296.041-.296.043-.295.045-.295.047-.295.048-.295.05-.294.052-.294.054-.294.056-.293.058-.293.059-.293.061-.292.063-.292.065-.291.067-.291.069-.291.07-.29.072-.29.074-.289.076-.289.078-.288.08-.288.081-.287.083-.287.085-.286.087-.286.089-.285.09-.285.092-.284.094-.283.096-.283.097-.282.099-.282.101-.281.103-.28.105-.28.106-.279.108-.278.11-.278.112-.277.113-.276.115-.276.117-.275.118-.274.12-.273.122-.273.124-.272.125-.271.127-.27.129-.269.428.206.428.206.428.206.428.206.428.206.428.206.428.206.428.206.428.206.428.206.428.206.428.206.428.206.428.206.428.206.428.206.428.206.428.206.428.206.428.206.428.206.428.206.428.206.428.206.428.206.428.206.428.206.428.206.428.206.428.206.428.206.428.206.428.206.428.206.428.206.428.206.428.206.428.206.428.206.428.206.428.206.428.206.428.206.428.206.428.206.428.206.428.206.428.206.428.206.428.206.428.206.428.206.428.206.428.206.428.206.428.206.428.206.428.206.428.206.428.206.428.206.428.206.428.206.428.206.428.206.428.206.428.206.428.206.428.206.428.206.428.206.428.206.428.206.428.206.428.206.428.206.428.206.428.206.428.206.428.206.428.206.428.206.428.206.428.206.428.206.428.206.428.206.428.206.428.206.428.206.428.206.428.206.428.206.428.206.428.206.428.206.428.206.428.206.428.206.436.223z" opacity=".6"/><path fill="#29ffce" d="m63.975 63.784-.223.155-.223.155-.223.155-.223.155-.223.155-.223.155-.223.155-.224.151-.223.155-.223.155-.223.155-.223.155-.223.155-.223.155-.223.155-.223.155-.223.155-.223.155-.223.155-.223.155-.223.155-.223.155-.223.155-.223.155-.223.155-.223.155-.223.155-.223.155-.223.155-.223.155-.223.155-.223.155-.223.155-.223.155-.223.155-.223.155-.223.155-.223.155-.223.155-.223.155-.223.155-.223.155-.223.155-.223.155-.223.155-.223.155-.223.155-.223.155-.223.155-.223.155-.223.155-.223.155-.223.155-.223.155-.232.137-.223.155-.223.155-.223.155-.223.155-.223.155-.223.155-.223.155-.223.155-.223.155-.223.155-.223.155-.223.155-.223.155-.223.155-.223.155-.223.155-.223.155-.223.155-.223.155-.223.155-.223.155-.223.155-.223.155-.223.155-.223.155-.223.155-.223.155-.223.155-.223.155-.223.155-.223.155-.223.155-.223.155-.223.155-.223.155-.223.155-.223.155-.223.155-.223.155-.223.155-.223.155-.223.155-.223.155-.231.138-.223.155-.024-.035-.024-.035-.024-.035-.024-.035-.024-.035-.024-.035-.024-.035-.024-.035-.024-.035-.024-.035-.024-.035-.024-.035-.024-.036-.024-.036-.023-.036-.023-.036-.023-.036-.023-.036-.023-.036-.023-.036-.023-.036-.023-.036-.023-.036-.023-.036-.023-.036-.023-.036-.023-.036-.023-.036-.023-.036-.023-.036-.023-.036-.023-.036-.022-.036-.022-.036-.022-.036-.022-.036-.022-.036-.022-.036-.022-.036-.022-.036-.022-.037-.022-.037-.022-.037-.022-.037-.022-.037-.022-.037-.022-.037-.022-.037-.022-.037-.021-.037-.021-.037-.021-.037-.021-.037-.021-.037-.021-.037-.021-.037-.021-.037-.021-.037-.021-.037-.021-.037-.021-.037-.021-.037-.021-.037-.021-.037-.021-.037-.021-.037-.021-.037-.02-.037-.02-.037-.02-.037-.02-.038-.02-.038-.02-.038-.02-.038-.02-.038-.02-.038-.02-.038-.02-.038-.02-.038-.02-.038-.02-.038-.02-.038-.02-.038-.019-.038-.019-.038-.019-.038-.019-.038-.019-.038-.019-.038-.019-.038-.019-.038-.019-.038-.019-.038-.019-.038-.019-.038-.019-.038-.019-.038-.019-.041-.019-.038-.019-.038.245-.118.245-.118.245-.118.245-.118.245-.118.245-.118.245-.118.245-.118.245-.118.245-.118.245-.118.245-.118.245-.118.245-.118.245-.118.245-.118.245-.118.245-.118.245-.118.245-.118.245-.118.245-.118.245-.118.245-.118.245-.118.245-.118.245-.118.245-.118.245-.118.245-.118.245-.118.245-.118.245-.118.245-.118.245-.118.245-.118.245-.118.245-.118.245-.118.245-.118.245-.118.245-.118.245-.118.245-.118.245-.118.245-.118.245-.118.245-.118.245-.118.245-.118.245-.118.245-.118.245-.118.245-.118.245-.118.245-.118.245-.118.245-.118.245-.118.245-.118.245-.118.245-.118.245-.118.245-.118.245-.118.245-.118.245-.118.245-.118.245-.118.245-.118.245-.118.245-.118.245-.118.245-.118.245-.118.245-.118.245-.118.245-.118.245-.118.245-.118.245-.118.245-.118.245-.118.245-.118.245-.118.245-.118.245-.118.245-.118.245-.118.245-.118.245-.118.245-.118.245-.118.245-.118.245-.118.245-.118.245-.118.245-.118.245-.118.208-.098z" opacity=".6"/><path fill="#7dff7a" d="m63.975 63.784.057.335.057.335.057.335.057.335.057.335.057.335.057.335.057.335.057.335.057.335.057.335.057.335.057.335.057.335.057.335.057.335.057.335.057.335.057.335.057.335.057.335.057.335.057.335.057.335.057.335.057.335.057.335.057.335.057.335.057.335.057.335.057.335.057.335.057.335.057.335.057.335.057.335.057.335.057.335.057.335.057.335.057.335.057.335.057.335.057.335.057.335.057.335.057.335.057.335.057.335.057.335.057.335.057.335.057.335.057.335.057.335.057.335.057.335.057.335.057.335.057.335.057.335.057.335.057.335.057.335.057.335.057.335.057.335.057.335.057.335.057.335.057.335.057.335.057.335.057.335.057.335.057.335.057.335.057.335.057.335.057.335.057.335.057.335.057.335.057.335.057.335.057.335.057.335.057.335.057.335.057.335.057.335.057.335.057.335.057.335.057.335.057.335.057.335.057.335.057.335-.131.022-.132.022-.132.021-.132.021-.132.02-.132.019-.132.019-.132.018-.132.018-.132.017-.132.017-.132.016-.132.016-.132.015-.132.015-.132.014-.133.014-.133.013-.133.013-.133.012-.133.012-.133.011-.133.011-.133.01-.133.01-.133.009-.133.009-.133.008-.133.007-.133.007-.133.007-.133.006-.133.005-.133.005-.133.004-.133.004-.133.003-.133.003-.133.002-.133.002-.133.001-.133.001h-.266l-.133-.001-.133-.001-.133-.002-.133-.002-.133-.003-.133-.003-.133-.004-.153-.047-.133-.005-.133-.005-.133-.006-.133-.007-.134-.007-.133-.008-.133-.008-.133-.009-.133-.009-.133-.01-.133-.01-.133-.011-.133-.011-.133-.012-.133-.012-.133-.013-.133-.013-.133-.014-.132-.015-.13-.015-.132-.015-.132-.016-.132-.017-.132-.017-.132-.018-.132-.018-.132-.019-.132-.019-.132-.02-.132-.02-.132-.021-.132-.021-.131-.022-.131-.022-.131-.023-.131-.023-.131-.024-.131-.024-.131-.025-.131-.025-.131-.026-.131-.026-.131-.027-.13-.027-.13-.028-.13-.028-.13-.029-.13-.029.076-.331.076-.331.076-.331.076-.331.076-.331.076-.331.076-.331.076-.331.076-.331.076-.331.076-.331.076-.331.076-.331.076-.331.076-.331.076-.331.076-.331.076-.331.076-.331.076-.331.076-.331.076-.331.076-.331.076-.331.076-.331.076-.331.076-.331.076-.331.076-.331.076-.331.076-.331.076-.331.076-.331.076-.331.076-.331.076-.331.076-.331.076-.331.076-.331.076-.331.076-.331.076-.331.076-.331.076-.331.076-.331.076-.331.076-.331.076-.331.076-.331.076-.331.076-.331.076-.331.076-.331.076-.331.076-.331.076-.331.076-.331.076-.331.076-.331.076-.331.076-.331.076-.331.076-.331.076-.331.076-.331.076-.331.076-.331.076-.331.076-.331.076-.331.076-.331.076-.331.076-.331.076-.331.076-.331.076-.331.076-.331.076-.331.076-.331.076-.331.076-.331.076-.331.076-.331.076-.331.076-.331.076-.331.076-.331.076-.331.076-.331.076-.331.076-.331.076-.331.076-.331.076-.331.076-.331.076-.331.076-.331.076-.331.076-.331.027-.318z" opacity=".6"/><path fill="#ff6800" d="m63.975 63.784.428.334.428.334.428.334.428.334.428.334.428.334.428.334.428.334.428.334.428.334.428.334.428.334.428.334.428.334.433.33.428.334.428.334.428.334.428.334.428.334.428.334.428.334.428.334.428.334.428.334.428.334.428.334.428.334.428.334.428.334.428.334.428.334.428.334.428.334.428.334.428.334.428.334.428.334.428.334.428.334.428.334.428.334.428.334.428.334.428.334.428.334.428.334.428.334.428.334.428.334.428.334.428.334.428.334.428.334.428.334.428.334.428.334.428.334.428.334.428.334.428.334.428.334.428.334.428.334.428.334.428.334.428.334.428.334.428.334.428.334.428.334.428.334.428.334.428.334.428.334.428.334.428.334.428.334.428.334.428.334.428.334.428.334.428.334.428.334.428.334.428.334.428.334.428.334.428.334.428.334.428.334.428.334.428.334.428.334.428.334.428.334.428.334.428.334.428.334.428.334-.079.101-.079.101-.079.1-.079.1-.08.1-.08.1-.08.1-.08.1-.081.099-.081.099-.081.099-.081.099-.082.099-.082.098-.082.098-.082.098-.083.098-.083.098-.083.097-.083.097-.083.097-.084.097-.084.097-.084.096-.084.096-.085.096-.085.096-.085.096-.085.095-.085.095-.086.095-.086.095-.086.095-.086.094-.087.094-.087.094-.087.094-.087.094-.087.093-.088.093-.088.093-.088.093-.088.093-.089.092-.089.092-.089.092-.089.092-.089.092-.09.091-.09.091-.09.091-.09.091-.09.09-.091.09-.091.09-.091.09-.091.09-.092.089-.092.089-.092.089-.092.089-.092.089-.093.088-.093.088-.093.088-.093.088-.093.087-.094.087-.094.087-.094.087-.094.087-.094.086-.068.066-.095.086-.095.086-.095.085-.095.085-.096.085-.096.085-.096.084-.096.084-.096.084-.097.084-.097.084-.097.083-.097.083-.097.083-.098.083-.098.082-.098.082-.098.082-.098.082-.099.082-.099.081-.099.081-.099.081-.099.081-.1.08-.1.08-.1.08-.339-.425-.338-.424-.339-.425-.339-.425-.339-.425-.339-.425-.339-.425-.339-.425-.339-.425-.339-.425-.339-.425-.339-.425-.339-.425-.339-.425-.339-.425-.339-.425-.339-.425-.339-.425-.339-.425-.339-.425-.339-.425-.339-.425-.339-.425-.339-.425-.339-.425-.33-.414-.339-.425-.339-.425-.339-.425-.339-.425-.339-.425-.339-.425-.339-.425-.339-.425-.339-.425-.339-.425-.339-.425-.339-.425-.339-.425-.339-.425-.339-.425-.339-.425-.339-.425-.339-.425-.339-.425-.339-.425-.339-.425-.339-.425-.339-.425-.339-.425-.339-.425-.339-.425-.339-.425-.339-.425-.339-.425-.339-.425-.339-.425-.339-.425-.339-.425-.339-.425-.339-.425-.339-.425-.339-.425-.339-.425-.339-.425-.339-.425-.339-.425-.339-.425-.339-.425-.339-.425-.339-.425-.339-.425-.339-.425-.339-.425-.339-.425-.339-.425-.339-.425-.339-.425-.339-.425-.339-.425-.339-.425-.339-.425-.339-.425-.339-.425-.339-.425-.339-.425-.339-.425-.339-.425-.339-.425-.339-.425-.339-.425-.339-.425-.339-.425-.339-.425-.339-.425-.339-.425-.339-.425-.339-.425-.339-.425-.307-.391z" opacity=".6"/><path fill="#2c2c2c" d="m77.551 64.198-13.576-.001a.414.414 0 0 1-.128-.806l12.912-4.194a.413.413 0 0 1 .521.265c.455 1.398.685 2.853.684 4.323a.413.413 0 0 1-.413.413zm-10.965-.828h10.545a13.114 13.114 0 0 0-.516-3.258L66.586 63.37z"/><path fill="#2c2c2c" d="M63.975 64.197a.414.414 0 0 1-.387-.558L77.899 25.51a.412.412 0 0 1 .532-.242 41 41 0 0 1 11.196 6.351.414.414 0 0 1 .066.581L64.298 64.041a.415.415 0 0 1-.323.156zm14.552-38.008L65.28 61.484l23.507-29.475a40.163 40.163 0 0 0-10.26-5.82z"/><path fill="#2c2c2c" d="M63.975 64.197a.415.415 0 0 1-.317-.148L28.857 22.364a.412.412 0 0 1 .052-.582A54.784 54.784 0 0 1 51.801 10.44a.414.414 0 0 1 .495.312l12.083 52.941a.415.415 0 0 1-.22.463.444.444 0 0 1-.184.041zM29.757 22.152l33.431 40.044-11.607-50.857a53.967 53.967 0 0 0-21.824 10.813z"/><path fill="#2c2c2c" d="M17.224 72.681a.413.413 0 0 1-.406-.339c-1.813-9.884-.401-20.309 3.977-29.355a.414.414 0 0 1 .552-.193l42.808 20.615a.413.413 0 0 1-.106.78l-46.75 8.485a.318.318 0 0 1-.075.007zm4.136-28.96c-4.103 8.678-5.448 18.61-3.801 28.067l45.09-8.183L21.36 43.721z"/><path fill="#2c2c2c" d="M41.657 79.659a.42.42 0 0 1-.341-.178 27.673 27.673 0 0 1-2.177-3.738.413.413 0 0 1 .193-.552l24.462-11.78a.413.413 0 0 1 .415.713L41.893 79.586a.414.414 0 0 1-.236.073zm-1.59-3.904a27.058 27.058 0 0 0 1.697 2.913L59.42 66.436l-19.353 9.319z"/><path fill="#2c2c2c" d="M63.99 98.132c-2.58 0-5.165-.287-7.66-.857a.415.415 0 0 1-.311-.496l7.552-33.088c.044-.192.223-.354.415-.321a.412.412 0 0 1 .396.344l5.685 33.46a.414.414 0 0 1-.339.477 34.201 34.201 0 0 1-5.738.481zm-7.072-1.574c4 .86 8.22.98 12.264.344l-5.267-30.999-6.997 30.655z"/><path fill="#2c2c2c" d="M97.832 106.652a.413.413 0 0 1-.324-.156L63.651 64.041a.413.413 0 0 1 .577-.584l42.833 33.379a.414.414 0 0 1 .072.581 54.697 54.697 0 0 1-9.045 9.146.409.409 0 0 1-.256.089zM66.477 66.258l31.42 39.399a53.985 53.985 0 0 0 8.329-8.423L66.477 66.258z"/></svg><text x="552.0" y="246" fill="#1a1816" font-size="11.5" text-anchor="middle" font-family="Inter, Segoe UI, Helvetica Neue, Helvetica, Arial, sans-serif">Matplotlib</text></g><g class="tx" style="animation-delay:0.26s"><rect x="608.0" y="180" width="94" height="86" rx="11" fill="#f6f4f0" stroke="#4169E1" stroke-opacity="0.32" stroke-width="1" /><rect x="634.0" y="257" width="42" height="3" rx="1.5" fill="#4169E1" fill-opacity="0.9" /><svg x="640.0" y="193.0" width="30" height="30" viewBox="0 0 128 128" overflow="visible"><path d="M93.809 92.112c.785-6.533.55-7.492 5.416-6.433l1.235.108c3.742.17 8.637-.602 11.513-1.938 6.191-2.873 9.861-7.668 3.758-6.409-13.924 2.873-14.881-1.842-14.881-1.842 14.703-21.815 20.849-49.508 15.543-56.287-14.47-18.489-39.517-9.746-39.936-9.52l-.134.025c-2.751-.571-5.83-.912-9.289-.968-6.301-.104-11.082 1.652-14.709 4.402 0 0-44.683-18.409-42.604 23.151.442 8.841 12.672 66.898 27.26 49.362 5.332-6.412 10.484-11.834 10.484-11.834 2.558 1.699 5.622 2.567 8.834 2.255l.249-.212c-.078.796-.044 1.575.099 2.497-3.757 4.199-2.653 4.936-10.166 6.482-7.602 1.566-3.136 4.355-.221 5.084 3.535.884 11.712 2.136 17.238-5.598l-.22.882c1.474 1.18 1.375 8.477 1.583 13.69.209 5.214.558 10.079 1.621 12.948 1.063 2.868 2.317 10.256 12.191 8.14 8.252-1.764 14.561-4.309 15.136-27.985"/><path d="M75.458 125.256c-4.367 0-7.211-1.689-8.938-3.32-2.607-2.46-3.641-5.629-4.259-7.522l-.267-.79c-1.244-3.358-1.666-8.193-1.916-14.419-.038-.935-.064-1.898-.093-2.919-.021-.747-.047-1.684-.085-2.664a18.8 18.8 0 01-4.962 1.568c-3.079.526-6.389.356-9.84-.507-2.435-.609-4.965-1.871-6.407-3.82-4.203 3.681-8.212 3.182-10.396 2.453-3.853-1.285-7.301-4.896-10.542-11.037-2.309-4.375-4.542-10.075-6.638-16.943-3.65-11.96-5.969-24.557-6.175-28.693C4.292 23.698 7.777 14.44 15.296 9.129 27.157.751 45.128 5.678 51.68 7.915c4.402-2.653 9.581-3.944 15.433-3.851 3.143.051 6.136.327 8.916.823 2.9-.912 8.628-2.221 15.185-2.139 12.081.144 22.092 4.852 28.949 13.615 4.894 6.252 2.474 19.381.597 26.651-2.642 10.226-7.271 21.102-12.957 30.57 1.544.011 3.781-.174 6.961-.831 6.274-1.295 8.109 2.069 8.607 3.575 1.995 6.042-6.677 10.608-9.382 11.864-3.466 1.609-9.117 2.589-13.745 2.377l-.202-.013-1.216-.107-.12 1.014-.116.991c-.311 11.999-2.025 19.598-5.552 24.619-3.697 5.264-8.835 6.739-13.361 7.709-1.544.33-2.947.474-4.219.474zm-9.19-43.671c2.819 2.256 3.066 6.501 3.287 14.434.028.99.054 1.927.089 2.802.106 2.65.355 8.855 1.327 11.477.137.371.26.747.39 1.146 1.083 3.316 1.626 4.979 6.309 3.978 3.931-.843 5.952-1.599 7.534-3.851 2.299-3.274 3.585-9.86 3.821-19.575l4.783.116-4.75-.57.14-1.186c.455-3.91.783-6.734 3.396-8.602 2.097-1.498 4.486-1.353 6.389-1.01-2.091-1.58-2.669-3.433-2.823-4.193l-.399-1.965 1.121-1.663c6.457-9.58 11.781-21.354 14.609-32.304 2.906-11.251 2.02-17.226 1.134-18.356-11.729-14.987-32.068-8.799-34.192-8.097l-.359.194-1.8.335-.922-.191c-2.542-.528-5.366-.82-8.393-.869-4.756-.08-8.593 1.044-11.739 3.431l-2.183 1.655-2.533-1.043c-5.412-2.213-21.308-6.662-29.696-.721-4.656 3.298-6.777 9.76-6.305 19.207.156 3.119 2.275 14.926 5.771 26.377 4.831 15.825 9.221 21.082 11.054 21.693.32.108 1.15-.537 1.976-1.529a270.708 270.708 0 0110.694-12.07l2.77-2.915 3.349 2.225c1.35.897 2.839 1.406 4.368 1.502l7.987-6.812-1.157 11.808c-.026.265-.039.626.065 1.296l.348 2.238-1.51 1.688-.174.196 4.388 2.025 1.836-2.301z"/><path fill="#336791" d="M115.731 77.44c-13.925 2.873-14.882-1.842-14.882-1.842 14.703-21.816 20.849-49.51 15.545-56.287C101.924.823 76.875 9.566 76.457 9.793l-.135.024c-2.751-.571-5.83-.911-9.291-.967-6.301-.103-11.08 1.652-14.707 4.402 0 0-44.684-18.408-42.606 23.151.442 8.842 12.672 66.899 27.26 49.363 5.332-6.412 10.483-11.834 10.483-11.834 2.559 1.699 5.622 2.567 8.833 2.255l.25-.212c-.078.796-.042 1.575.1 2.497-3.758 4.199-2.654 4.936-10.167 6.482-7.602 1.566-3.136 4.355-.22 5.084 3.534.884 11.712 2.136 17.237-5.598l-.221.882c1.473 1.18 2.507 7.672 2.334 13.557-.174 5.885-.29 9.926.871 13.082 1.16 3.156 2.316 10.256 12.192 8.14 8.252-1.768 12.528-6.351 13.124-13.995.422-5.435 1.377-4.631 1.438-9.49l.767-2.3c.884-7.367.14-9.743 5.225-8.638l1.235.108c3.742.17 8.639-.602 11.514-1.938 6.19-2.871 9.861-7.667 3.758-6.408z"/><path fill="#fff" d="M75.957 122.307c-8.232 0-10.84-6.519-11.907-9.185-1.562-3.907-1.899-19.069-1.551-31.503a1.59 1.59 0 011.64-1.55 1.594 1.594 0 011.55 1.639c-.401 14.341.168 27.337 1.324 30.229 1.804 4.509 4.54 8.453 12.275 6.796 7.343-1.575 10.093-4.359 11.318-11.46.94-5.449 2.799-20.951 3.028-24.01a1.593 1.593 0 011.71-1.472 1.597 1.597 0 011.472 1.71c-.239 3.185-2.089 18.657-3.065 24.315-1.446 8.387-5.185 12.191-13.794 14.037-1.463.313-2.792.453-4 .454zM31.321 90.466a6.71 6.71 0 01-2.116-.35c-5.347-1.784-10.44-10.492-15.138-25.885-3.576-11.717-5.842-23.947-6.041-27.922-.589-11.784 2.445-20.121 9.02-24.778 13.007-9.216 34.888-.44 35.813-.062a1.596 1.596 0 01-1.207 2.955c-.211-.086-21.193-8.492-32.768-.285-5.622 3.986-8.203 11.392-7.672 22.011.167 3.349 2.284 15.285 5.906 27.149 4.194 13.742 8.967 22.413 13.096 23.79.648.216 2.62.873 5.439-2.517A245.272 245.272 0 0145.88 73.046a1.596 1.596 0 012.304 2.208c-.048.05-4.847 5.067-10.077 11.359-2.477 2.979-4.851 3.853-6.786 3.853zm69.429-13.445a1.596 1.596 0 01-1.322-2.487c14.863-22.055 20.08-48.704 15.612-54.414-5.624-7.186-13.565-10.939-23.604-11.156-7.433-.16-13.341 1.738-14.307 2.069l-.243.099c-.971.305-1.716-.227-1.997-.849a1.6 1.6 0 01.631-2.025c.046-.027.192-.089.429-.176l-.021.006.021-.007c1.641-.601 7.639-2.4 15.068-2.315 11.108.118 20.284 4.401 26.534 12.388 2.957 3.779 2.964 12.485.019 23.887-3.002 11.625-8.651 24.118-15.497 34.277-.306.457-.81.703-1.323.703zm.76 10.21c-2.538 0-4.813-.358-6.175-1.174-1.4-.839-1.667-1.979-1.702-2.584-.382-6.71 3.32-7.878 5.208-8.411-.263-.398-.637-.866-1.024-1.349-1.101-1.376-2.609-3.26-3.771-6.078-.182-.44-.752-1.463-1.412-2.648-3.579-6.418-11.026-19.773-6.242-26.612 2.214-3.165 6.623-4.411 13.119-3.716C97.6 28.837 88.5 10.625 66.907 10.271c-6.494-.108-11.82 1.889-15.822 5.93-8.96 9.049-8.636 25.422-8.631 25.586a1.595 1.595 0 11-3.19.084c-.02-.727-.354-17.909 9.554-27.916C53.455 9.272 59.559 6.96 66.96 7.081c13.814.227 22.706 7.25 27.732 13.101 5.479 6.377 8.165 13.411 8.386 15.759.165 1.746-1.088 2.095-1.341 2.147l-.576.013c-6.375-1.021-10.465-.312-12.156 2.104-3.639 5.201 3.406 17.834 6.414 23.229.768 1.376 1.322 2.371 1.576 2.985.988 2.396 2.277 4.006 3.312 5.3.911 1.138 1.7 2.125 1.982 3.283.131.23 1.99 2.98 13.021.703 2.765-.57 4.423-.083 4.93 1.45.997 3.015-4.597 6.532-7.694 7.97-2.775 1.29-7.204 2.106-11.036 2.106zm-4.696-4.021c.35.353 2.101.962 5.727.806 3.224-.138 6.624-.839 8.664-1.786 2.609-1.212 4.351-2.567 5.253-3.492l-.5.092c-7.053 1.456-12.042 1.262-14.828-.577a6.162 6.162 0 01-.54-.401c-.302.119-.581.197-.78.253-1.58.443-3.214.902-2.996 5.105zm-45.562 8.915c-1.752 0-3.596-.239-5.479-.71-1.951-.488-5.24-1.957-5.19-4.37.057-2.707 3.994-3.519 5.476-3.824 5.354-1.103 5.703-1.545 7.376-3.67.488-.619 1.095-1.39 1.923-2.314 1.229-1.376 2.572-2.073 3.992-2.073.989 0 1.8.335 2.336.558 1.708.708 3.133 2.42 3.719 4.467.529 1.847.276 3.625-.71 5.006-3.237 4.533-7.886 6.93-13.443 6.93zm-7.222-4.943c.481.372 1.445.869 2.518 1.137 1.631.408 3.213.615 4.705.615 4.546 0 8.196-1.882 10.847-5.594.553-.774.387-1.757.239-2.274-.31-1.083-1.08-2.068-1.873-2.397-.43-.178-.787-.314-1.115-.314-.176 0-.712 0-1.614 1.009a41.146 41.146 0 00-1.794 2.162c-2.084 2.646-3.039 3.544-9.239 4.821-1.513.31-2.289.626-2.674.835zm12.269-7.36a1.596 1.596 0 01-1.575-1.354 8.218 8.218 0 01-.08-.799c-4.064-.076-7.985-1.82-10.962-4.926-3.764-3.927-5.477-9.368-4.699-14.927.845-6.037.529-11.366.359-14.229-.047-.796-.081-1.371-.079-1.769.003-.505.013-1.844 4.489-4.113 1.592-.807 4.784-2.215 8.271-2.576 5.777-.597 9.585 1.976 10.725 7.246 3.077 14.228.244 20.521-1.825 25.117-.385.856-.749 1.664-1.04 2.447l-.257.69c-1.093 2.931-2.038 5.463-1.748 7.354a1.595 1.595 0 01-1.335 1.819l-.244.02zM42.464 42.26l.062 1.139c.176 2.974.504 8.508-.384 14.86-.641 4.585.759 9.06 3.843 12.276 2.437 2.542 5.644 3.945 8.94 3.945h.068c.369-1.555.982-3.197 1.642-4.966l.255-.686c.329-.884.714-1.74 1.122-2.646 1.991-4.424 4.47-9.931 1.615-23.132-.565-2.615-1.936-4.128-4.189-4.627-4.628-1.022-11.525 2.459-12.974 3.837zm9.63-.677c-.08.564 1.033 2.07 2.485 2.271 1.449.203 2.689-.975 2.768-1.539.079-.564-1.033-1.186-2.485-1.388-1.451-.202-2.691.092-2.768.656zm2.818 2.826l-.407-.028c-.9-.125-1.81-.692-2.433-1.518-.219-.29-.576-.852-.505-1.354.101-.736.999-1.177 2.4-1.177.313 0 .639.023.967.069.766.106 1.477.327 2.002.62.91.508.977 1.075.936 1.368-.112.813-1.405 2.02-2.96 2.02zm-2.289-2.732c.045.348.907 1.496 2.029 1.651l.261.018c1.036 0 1.81-.815 1.901-1.082-.096-.182-.762-.634-2.025-.81a5.823 5.823 0 00-.821-.059c-.812 0-1.243.183-1.345.282zm43.605-1.245c.079.564-1.033 2.07-2.484 2.272-1.45.202-2.691-.975-2.771-1.539-.076-.564 1.036-1.187 2.486-1.388 1.45-.203 2.689.092 2.769.655zm-2.819 2.56c-1.396 0-2.601-1.086-2.7-1.791-.115-.846 1.278-1.489 2.712-1.688.316-.044.629-.066.93-.066 1.238 0 2.058.363 2.14.949.053.379-.238.964-.739 1.492-.331.347-1.026.948-1.973 1.079l-.37.025zm.943-3.013c-.276 0-.564.021-.856.061-1.441.201-2.301.779-2.259 1.089.048.341.968 1.332 2.173 1.332l.297-.021c.787-.109 1.378-.623 1.66-.919.443-.465.619-.903.598-1.052-.028-.198-.56-.49-1.613-.49zm3.965 32.843a1.594 1.594 0 01-1.324-2.483c3.398-5.075 2.776-10.25 2.175-15.255-.257-2.132-.521-4.337-.453-6.453.07-2.177.347-3.973.614-5.71.317-2.058.617-4.002.493-6.31a1.595 1.595 0 113.186-.172c.142 2.638-.197 4.838-.525 6.967-.253 1.643-.515 3.342-.578 5.327-.061 1.874.178 3.864.431 5.97.64 5.322 1.365 11.354-2.691 17.411a1.596 1.596 0 01-1.328.708z"/></svg><text x="655.0" y="246" fill="#1a1816" font-size="11.5" text-anchor="middle" font-family="Inter, Segoe UI, Helvetica Neue, Helvetica, Arial, sans-serif">PostgreSQL</text></g><g class="tx" style="animation-delay:0.28s"><rect x="711.0" y="180" width="94" height="86" rx="11" fill="#f6f4f0" stroke="#47A248" stroke-opacity="0.32" stroke-width="1" /><rect x="737.0" y="257" width="42" height="3" rx="1.5" fill="#47A248" fill-opacity="0.9" /><svg x="743.0" y="193.0" width="30" height="30" viewBox="0 0 128 128" overflow="visible"><path fill-rule="evenodd" clip-rule="evenodd" fill="#439934" d="M88.038 42.812c1.605 4.643 2.761 9.383 3.141 14.296.472 6.095.256 12.147-1.029 18.142-.035.165-.109.32-.164.48-.403.001-.814-.049-1.208.012-3.329.523-6.655 1.065-9.981 1.604-3.438.557-6.881 1.092-10.313 1.687-1.216.21-2.721-.041-3.212 1.641-.014.046-.154.054-.235.08l.166-10.051-.169-24.252 1.602-.275c2.62-.429 5.24-.864 7.862-1.281 3.129-.497 6.261-.98 9.392-1.465 1.381-.215 2.764-.412 4.148-.618z"/><path fill-rule="evenodd" clip-rule="evenodd" fill="#45A538" d="M61.729 110.054c-1.69-1.453-3.439-2.842-5.059-4.37-8.717-8.222-15.093-17.899-18.233-29.566-.865-3.211-1.442-6.474-1.627-9.792-.13-2.322-.318-4.665-.154-6.975.437-6.144 1.325-12.229 3.127-18.147l.099-.138c.175.233.427.439.516.702 1.759 5.18 3.505 10.364 5.242 15.551 5.458 16.3 10.909 32.604 16.376 48.9.107.318.384.579.583.866l-.87 2.969z"/><path fill-rule="evenodd" clip-rule="evenodd" fill="#46A037" d="M88.038 42.812c-1.384.206-2.768.403-4.149.616-3.131.485-6.263.968-9.392 1.465-2.622.417-5.242.852-7.862 1.281l-1.602.275-.012-1.045c-.053-.859-.144-1.717-.154-2.576-.069-5.478-.112-10.956-.18-16.434-.042-3.429-.105-6.857-.175-10.285-.043-2.13-.089-4.261-.185-6.388-.052-1.143-.236-2.28-.311-3.423-.042-.657.016-1.319.029-1.979.817 1.583 1.616 3.178 2.456 4.749 1.327 2.484 3.441 4.314 5.344 6.311 7.523 7.892 12.864 17.068 16.193 27.433z"/><path fill-rule="evenodd" clip-rule="evenodd" fill="#409433" d="M65.036 80.753c.081-.026.222-.034.235-.08.491-1.682 1.996-1.431 3.212-1.641 3.432-.594 6.875-1.13 10.313-1.687 3.326-.539 6.652-1.081 9.981-1.604.394-.062.805-.011 1.208-.012-.622 2.22-1.112 4.488-1.901 6.647-.896 2.449-1.98 4.839-3.131 7.182a49.142 49.142 0 01-6.353 9.763c-1.919 2.308-4.058 4.441-6.202 6.548-1.185 1.165-2.582 2.114-3.882 3.161l-.337-.23-1.214-1.038-1.256-2.753a41.402 41.402 0 01-1.394-9.838l.023-.561.171-2.426c.057-.828.133-1.655.168-2.485.129-2.982.241-5.964.359-8.946z"/><path fill-rule="evenodd" clip-rule="evenodd" fill="#4FAA41" d="M65.036 80.753c-.118 2.982-.23 5.964-.357 8.947-.035.83-.111 1.657-.168 2.485l-.765.289c-1.699-5.002-3.399-9.951-5.062-14.913-2.75-8.209-5.467-16.431-8.213-24.642a4498.887 4498.887 0 00-6.7-19.867c-.105-.31-.407-.552-.617-.826l4.896-9.002c.168.292.39.565.496.879a6167.476 6167.476 0 016.768 20.118c2.916 8.73 5.814 17.467 8.728 26.198.116.349.308.671.491 1.062l.67-.78-.167 10.052z"/><path fill-rule="evenodd" clip-rule="evenodd" fill="#4AA73C" d="M43.155 32.227c.21.274.511.516.617.826a4498.887 4498.887 0 016.7 19.867c2.746 8.211 5.463 16.433 8.213 24.642 1.662 4.961 3.362 9.911 5.062 14.913l.765-.289-.171 2.426-.155.559c-.266 2.656-.49 5.318-.814 7.968-.163 1.328-.509 2.632-.772 3.947-.198-.287-.476-.548-.583-.866-5.467-16.297-10.918-32.6-16.376-48.9a3888.972 3888.972 0 00-5.242-15.551c-.089-.263-.34-.469-.516-.702l3.272-8.84z"/><path fill-rule="evenodd" clip-rule="evenodd" fill="#57AE47" d="M65.202 70.702l-.67.78c-.183-.391-.375-.714-.491-1.062-2.913-8.731-5.812-17.468-8.728-26.198a6167.476 6167.476 0 00-6.768-20.118c-.105-.314-.327-.588-.496-.879l6.055-7.965c.191.255.463.482.562.769 1.681 4.921 3.347 9.848 5.003 14.778 1.547 4.604 3.071 9.215 4.636 13.813.105.308.47.526.714.786l.012 1.045c.058 8.082.115 16.167.171 24.251z"/><path fill-rule="evenodd" clip-rule="evenodd" fill="#60B24F" d="M65.021 45.404c-.244-.26-.609-.478-.714-.786-1.565-4.598-3.089-9.209-4.636-13.813-1.656-4.93-3.322-9.856-5.003-14.778-.099-.287-.371-.514-.562-.769 1.969-1.928 3.877-3.925 5.925-5.764 1.821-1.634 3.285-3.386 3.352-5.968.003-.107.059-.214.145-.514l.519 1.306c-.013.661-.072 1.322-.029 1.979.075 1.143.259 2.28.311 3.423.096 2.127.142 4.258.185 6.388.069 3.428.132 6.856.175 10.285.067 5.478.111 10.956.18 16.434.008.861.098 1.718.152 2.577z"/><path fill-rule="evenodd" clip-rule="evenodd" fill="#A9AA88" d="M62.598 107.085c.263-1.315.609-2.62.772-3.947.325-2.649.548-5.312.814-7.968l.066-.01.066.011a41.402 41.402 0 001.394 9.838c-.176.232-.425.439-.518.701-.727 2.05-1.412 4.116-2.143 6.166-.1.28-.378.498-.574.744l-.747-2.566.87-2.969z"/><path fill-rule="evenodd" clip-rule="evenodd" fill="#B6B598" d="M62.476 112.621c.196-.246.475-.464.574-.744.731-2.05 1.417-4.115 2.143-6.166.093-.262.341-.469.518-.701l1.255 2.754c-.248.352-.59.669-.728 1.061l-2.404 7.059c-.099.283-.437.483-.663.722l-.695-3.985z"/><path fill-rule="evenodd" clip-rule="evenodd" fill="#C2C1A7" d="M63.171 116.605c.227-.238.564-.439.663-.722l2.404-7.059c.137-.391.48-.709.728-1.061l1.215 1.037c-.587.58-.913 1.25-.717 2.097l-.369 1.208c-.168.207-.411.387-.494.624-.839 2.403-1.64 4.819-2.485 7.222-.107.305-.404.544-.614.812-.109-1.387-.22-2.771-.331-4.158z"/><path fill-rule="evenodd" clip-rule="evenodd" fill="#CECDB7" d="M63.503 120.763c.209-.269.506-.508.614-.812.845-2.402 1.646-4.818 2.485-7.222.083-.236.325-.417.494-.624l-.509 5.545c-.136.157-.333.294-.398.477-.575 1.614-1.117 3.24-1.694 4.854-.119.333-.347.627-.525.938-.158-.207-.441-.407-.454-.623-.051-.841-.016-1.688-.013-2.533z"/><path fill-rule="evenodd" clip-rule="evenodd" fill="#DBDAC7" d="M63.969 123.919c.178-.312.406-.606.525-.938.578-1.613 1.119-3.239 1.694-4.854.065-.183.263-.319.398-.477l.012 3.64-1.218 3.124-1.411-.495z"/><path fill-rule="evenodd" clip-rule="evenodd" fill="#EBE9DC" d="M65.38 124.415l1.218-3.124.251 3.696-1.469-.572z"/><path fill-rule="evenodd" clip-rule="evenodd" fill="#CECDB7" d="M67.464 110.898c-.196-.847.129-1.518.717-2.097l.337.23-1.054 1.867z"/><path fill-rule="evenodd" clip-rule="evenodd" fill="#4FAA41" d="M64.316 95.172l-.066-.011-.066.01.155-.559-.023.56z"/></svg><text x="758.0" y="246" fill="#1a1816" font-size="11.5" text-anchor="middle" font-family="Inter, Segoe UI, Helvetica Neue, Helvetica, Arial, sans-serif">MongoDB</text></g><g class="tx" style="animation-delay:0.30s"><rect x="814.0" y="180" width="94" height="86" rx="11" fill="#f6f4f0" stroke="#4479A1" stroke-opacity="0.32" stroke-width="1" /><rect x="840.0" y="257" width="42" height="3" rx="1.5" fill="#4479A1" fill-opacity="0.9" /><svg x="846.0" y="193.0" width="30" height="30" viewBox="0 0 128 128" overflow="visible"><path fill="#00618A" d="M117.688 98.242c-6.973-.191-12.297.461-16.852 2.379-1.293.547-3.355.559-3.566 2.18.711.746.82 1.859 1.387 2.777 1.086 1.754 2.922 4.113 4.559 5.352 1.789 1.348 3.633 2.793 5.551 3.961 3.414 2.082 7.223 3.27 10.504 5.352 1.938 1.23 3.859 2.777 5.75 4.164.934.684 1.563 1.75 2.773 2.18v-.195c-.637-.812-.801-1.93-1.387-2.777l-2.578-2.578c-2.52-3.344-5.719-6.281-9.117-8.719-2.711-1.949-8.781-4.578-9.91-7.73l-.199-.199c1.922-.219 4.172-.914 5.949-1.391 2.98-.797 5.645-.59 8.719-1.387l4.164-1.187v-.793c-1.555-1.594-2.664-3.707-4.359-5.152-4.441-3.781-9.285-7.555-14.273-10.703-2.766-1.746-6.184-2.883-9.117-4.363-.988-.496-2.719-.758-3.371-1.586-1.539-1.961-2.379-4.449-3.566-6.738-2.488-4.793-4.93-10.023-7.137-15.066-1.504-3.437-2.484-6.828-4.359-9.91-9-14.797-18.687-23.73-33.695-32.508-3.195-1.867-7.039-2.605-11.102-3.57l-6.543-.395c-1.332-.555-2.715-2.184-3.965-2.977C16.977 3.52 4.223-3.312.539 5.672-1.785 11.34 4.016 16.871 6.09 19.746c1.457 2.012 3.32 4.273 4.359 6.539.688 1.492.805 2.984 1.391 4.559 1.438 3.883 2.695 8.109 4.559 11.695.941 1.816 1.98 3.727 3.172 5.352.727.996 1.98 1.438 2.18 2.973-1.227 1.715-1.297 4.375-1.984 6.543-3.098 9.77-1.926 21.91 2.578 29.137 1.383 2.223 4.641 6.98 9.117 5.156 3.918-1.598 3.043-6.539 4.164-10.902.254-.988.098-1.715.594-2.379v.199l3.57 7.133c2.641 4.254 7.324 8.699 11.297 11.699 2.059 1.555 3.68 4.242 6.344 5.152v-.199h-.199c-.516-.805-1.324-1.137-1.98-1.781-1.551-1.523-3.277-3.414-4.559-5.156-3.613-4.902-6.805-10.27-9.711-15.855-1.391-2.668-2.598-5.609-3.77-8.324-.453-1.047-.445-2.633-1.387-3.172-1.281 1.988-3.172 3.598-4.164 5.945-1.582 3.754-1.789 8.336-2.375 13.082-.348.125-.195.039-.398.199-2.762-.668-3.73-3.508-4.758-5.949-2.594-6.164-3.078-16.09-.793-23.191.59-1.836 3.262-7.617 2.18-9.316-.516-1.691-2.219-2.672-3.172-3.965-1.18-1.598-2.355-3.703-3.172-5.551-2.125-4.805-3.113-10.203-5.352-15.062-1.07-2.324-2.875-4.676-4.359-6.738-1.645-2.289-3.484-3.977-4.758-6.742-.453-.984-1.066-2.559-.398-3.566.215-.684.516-.969 1.191-1.191 1.148-.887 4.352.297 5.547.793 3.18 1.32 5.832 2.578 8.527 4.363 1.289.855 2.598 2.512 4.16 2.973h1.785c2.789.641 5.914.195 8.523.988 4.609 1.402 8.738 3.582 12.488 5.949 11.422 7.215 20.766 17.48 27.156 29.734 1.027 1.973 1.473 3.852 2.379 5.945 1.824 4.219 4.125 8.559 5.941 12.688 1.816 4.113 3.582 8.27 6.148 11.695 1.348 1.801 6.551 2.766 8.918 3.766 1.66.699 4.379 1.43 5.949 2.379 3 1.809 5.906 3.965 8.723 5.945 1.402.992 5.73 3.168 5.945 4.957zm-88.605-75.52c-1.453-.027-2.48.156-3.566.395v.199h.195c.695 1.422 1.918 2.34 2.777 3.566l1.98 4.164.199-.195c1.227-.867 1.789-2.25 1.781-4.363-.492-.52-.562-1.164-.992-1.785-.562-.824-1.66-1.289-2.375-1.98zm0 0"/></svg><text x="861.0" y="246" fill="#1a1816" font-size="11.5" text-anchor="middle" font-family="Inter, Segoe UI, Helvetica Neue, Helvetica, Arial, sans-serif">MySQL</text></g><g class="tx" style="animation-delay:0.32s"><rect x="917.0" y="180" width="94" height="86" rx="11" fill="#f6f4f0" stroke="#003B57" stroke-opacity="0.32" stroke-width="1" /><rect x="943.0" y="257" width="42" height="3" rx="1.5" fill="#003B57" fill-opacity="0.9" /><svg x="949.0" y="193.0" width="30" height="30" viewBox="0 0 128 128" overflow="visible"><defs><linearGradient id="sqlite-original-a" x1="-15.615" x2="-6.741" y1="-9.108" y2="-9.108" gradientTransform="rotate(90 -90.486 64.634) scale(9.2712)" gradientUnits="userSpaceOnUse"><stop stop-color="#95d7f4" offset="0"/><stop stop-color="#0f7fcc" offset=".92"/><stop stop-color="#0f7fcc" offset="1"/></linearGradient></defs><path d="M69.5 99.176c-.059-.73-.094-1.2-.094-1.2S67.2 83.087 64.57 78.642c-.414-.707.043-3.594 1.207-7.88.68 1.169 3.54 6.192 4.118 7.81.648 1.824.78 2.347.78 2.347s-1.57-8.082-4.144-12.797a162.286 162.286 0 012.004-6.265c.973 1.71 3.313 5.859 3.828 7.3.102.293.192.543.27.774.023-.137.05-.274.074-.414-.59-2.504-1.75-6.86-3.336-10.082 3.52-18.328 15.531-42.824 27.84-53.754H16.9c-5.387 0-9.789 4.406-9.789 9.789v88.57c0 5.383 4.406 9.789 9.79 9.789h52.897a118.657 118.657 0 01-.297-14.652" fill="#0b7fcc"/><path d="M65.777 70.762c.68 1.168 3.54 6.188 4.117 7.809.649 1.824.781 2.347.781 2.347s-1.57-8.082-4.144-12.797a164.535 164.535 0 012.004-6.27c.887 1.567 2.922 5.169 3.652 6.872l.082-.961c-.648-2.496-1.633-5.766-2.898-8.328 3.242-16.871 13.68-38.97 24.926-50.898H16.899a6.94 6.94 0 00-6.934 6.933v82.11c17.527-6.731 38.664-12.88 56.855-12.614-.672-2.605-1.441-4.96-2.25-6.324-.414-.707.043-3.597 1.207-7.879" fill="url(#sqlite-original-a)"/><path d="M115.95 2.781c-5.5-4.906-12.164-2.933-18.734 2.899a44.347 44.347 0 00-2.914 2.859c-11.25 11.926-21.684 34.023-24.926 50.895 1.262 2.563 2.25 5.832 2.894 8.328.168.64.32 1.242.442 1.754.285 1.207.437 1.996.437 1.996s-.101-.383-.515-1.582c-.078-.23-.168-.484-.27-.773-.043-.125-.105-.274-.172-.434-.734-1.703-2.765-5.305-3.656-6.867-.762 2.25-1.437 4.36-2.004 6.265 2.578 4.715 4.149 12.797 4.149 12.797s-.137-.523-.782-2.347c-.578-1.621-3.441-6.64-4.117-7.809-1.164 4.281-1.625 7.172-1.207 7.88.809 1.362 1.574 3.722 2.25 6.323 1.524 5.867 2.586 13.012 2.586 13.012s.031.469.094 1.2a118.653 118.653 0 00.297 14.651c.504 6.11 1.453 11.363 2.664 14.172l.828-.449c-1.781-5.535-2.504-12.793-2.188-21.156.48-12.793 3.422-28.215 8.856-44.289 9.191-24.27 21.938-43.738 33.602-53.035-10.633 9.602-25.023 40.684-29.332 52.195-4.82 12.891-8.238 24.984-10.301 36.574 3.55-10.863 15.047-15.53 15.047-15.53s5.637-6.958 12.227-16.888c-3.95.903-10.43 2.442-12.598 3.352-3.2 1.344-4.067 1.8-4.067 1.8s10.371-6.312 19.27-9.171c12.234-19.27 25.562-46.648 12.141-58.621" fill="#003956"/></svg><text x="964.0" y="246" fill="#1a1816" font-size="11.5" text-anchor="middle" font-family="Inter, Segoe UI, Helvetica Neue, Helvetica, Arial, sans-serif">SQLite</text></g><text x="26" y="227.0" fill="#5c564f" font-size="10.50" font-family="JetBrains Mono, SFMono-Regular, Consolas, Liberation Mono, Menlo, monospace" letter-spacing="1.60">LLMs, GENAI &#38; DATA</text><line x1="26" y1="283.0" x2="1174" y2="283.0" stroke="#e2ddd5" stroke-width="1" /><g class="tx" style="animation-delay:0.34s"><rect x="196.0" y="300" width="94" height="86" rx="11" fill="#f6f4f0" stroke="#0FAAFF" stroke-opacity="0.32" stroke-width="1" /><rect x="222.0" y="377" width="42" height="3" rx="1.5" fill="#0FAAFF" fill-opacity="0.9" /><text x="243.0" y="345.0" fill="#0FAAFF" font-size="14.5" font-weight="700" letter-spacing="0.4" text-anchor="middle" font-family="Inter, Segoe UI, Helvetica Neue, Helvetica, Arial, sans-serif">SAP ABAP</text></g><g class="tx" style="animation-delay:0.36s"><rect x="299.0" y="300" width="94" height="86" rx="11" fill="#f6f4f0" stroke="#0FAAFF" stroke-opacity="0.32" stroke-width="1" /><rect x="325.0" y="377" width="42" height="3" rx="1.5" fill="#0FAAFF" fill-opacity="0.9" /><text x="346.0" y="345.0" fill="#0FAAFF" font-size="14.5" font-weight="700" letter-spacing="0.4" text-anchor="middle" font-family="Inter, Segoe UI, Helvetica Neue, Helvetica, Arial, sans-serif">SAP HANA</text></g><g class="tx" style="animation-delay:0.38s"><rect x="402.0" y="300" width="94" height="86" rx="11" fill="#f6f4f0" stroke="#0078D4" stroke-opacity="0.32" stroke-width="1" /><rect x="428.0" y="377" width="42" height="3" rx="1.5" fill="#0078D4" fill-opacity="0.9" /><svg x="434.0" y="313.0" width="30" height="30" viewBox="0 0 128 128" overflow="visible"><defs><linearGradient id="azure-original-a" x1="60.919" y1="9.602" x2="18.667" y2="134.423" gradientUnits="userSpaceOnUse"><stop stop-color="#114A8B"/><stop offset="1" stop-color="#0669BC"/></linearGradient><linearGradient id="azure-original-b" x1="74.117" y1="67.772" x2="64.344" y2="71.076" gradientUnits="userSpaceOnUse"><stop stop-opacity=".3"/><stop offset=".071" stop-opacity=".2"/><stop offset=".321" stop-opacity=".1"/><stop offset=".623" stop-opacity=".05"/><stop offset="1" stop-opacity="0"/></linearGradient><linearGradient id="azure-original-c" x1="68.742" y1="5.961" x2="115.122" y2="129.525" gradientUnits="userSpaceOnUse"><stop stop-color="#3CCBF4"/><stop offset="1" stop-color="#2892DF"/></linearGradient></defs><path d="M46.09.002h40.685L44.541 125.137a6.485 6.485 0 01-6.146 4.413H6.733a6.482 6.482 0 01-5.262-2.699 6.474 6.474 0 01-.876-5.848L39.944 4.414A6.488 6.488 0 0146.09 0z" fill="url(#azure-original-a)" transform="translate(.587 4.468) scale(.91904)"/><path d="M97.28 81.607H37.987a2.743 2.743 0 00-1.874 4.751l38.1 35.562a5.991 5.991 0 004.087 1.61h33.574z" fill="#0078d4"/><path d="M46.09.002A6.434 6.434 0 0039.93 4.5L.644 120.897a6.469 6.469 0 006.106 8.653h32.48a6.942 6.942 0 005.328-4.531l7.834-23.089 27.985 26.101a6.618 6.618 0 004.165 1.519h36.396l-15.963-45.616-46.533.011L86.922.002z" fill="url(#azure-original-b)" transform="translate(.587 4.468) scale(.91904)"/><path d="M98.055 4.408A6.476 6.476 0 0091.917.002H46.575a6.478 6.478 0 016.137 4.406l39.35 116.594a6.476 6.476 0 01-6.137 8.55h45.344a6.48 6.48 0 006.136-8.55z" fill="url(#azure-original-c)" transform="translate(.587 4.468) scale(.91904)"/></svg><text x="449.0" y="366" fill="#1a1816" font-size="11.5" text-anchor="middle" font-family="Inter, Segoe UI, Helvetica Neue, Helvetica, Arial, sans-serif">Azure</text></g><g class="tx" style="animation-delay:0.40s"><rect x="505.0" y="300" width="94" height="86" rx="11" fill="#f6f4f0" stroke="#9cabbd" stroke-opacity="0.32" stroke-width="1" /><rect x="531.0" y="377" width="42" height="3" rx="1.5" fill="#9cabbd" fill-opacity="0.9" /><svg x="537.0" y="313.0" width="30" height="30" viewBox="0 0 128 128" overflow="visible"><path fill="#a9bacd" d="M125 50c-4-32-24-50-62-50C29 0 3 24 3 64c0 39 24 64 64 64 32 0 55-19 58-50H87c-2 11-8 20-20 20-21 0-24-16-24-33 0-23 8-35 22-35 13 0 20 7 22 20z" /></svg><text x="552.0" y="366" fill="#1a1816" font-size="11.5" text-anchor="middle" font-family="Inter, Segoe UI, Helvetica Neue, Helvetica, Arial, sans-serif">C</text></g><g class="tx" style="animation-delay:0.42s"><rect x="608.0" y="300" width="94" height="86" rx="11" fill="#f6f4f0" stroke="#58c6e4" stroke-opacity="0.32" stroke-width="1" /><rect x="634.0" y="377" width="42" height="3" rx="1.5" fill="#58c6e4" fill-opacity="0.9" /><svg x="640.0" y="313.0" width="30" height="30" viewBox="0 0 128 128" overflow="visible"><g fill="#61DAFB"><circle cx="64" cy="64" r="11.4"/><path d="M107.3 45.2c-2.2-.8-4.5-1.6-6.9-2.3.6-2.4 1.1-4.8 1.5-7.1 2.1-13.2-.2-22.5-6.6-26.1-1.9-1.1-4-1.6-6.4-1.6-7 0-15.9 5.2-24.9 13.9-9-8.7-17.9-13.9-24.9-13.9-2.4 0-4.5.5-6.4 1.6-6.4 3.7-8.7 13-6.6 26.1.4 2.3.9 4.7 1.5 7.1-2.4.7-4.7 1.4-6.9 2.3C8.2 50 1.4 56.6 1.4 64s6.9 14 19.3 18.8c2.2.8 4.5 1.6 6.9 2.3-.6 2.4-1.1 4.8-1.5 7.1-2.1 13.2.2 22.5 6.6 26.1 1.9 1.1 4 1.6 6.4 1.6 7.1 0 16-5.2 24.9-13.9 9 8.7 17.9 13.9 24.9 13.9 2.4 0 4.5-.5 6.4-1.6 6.4-3.7 8.7-13 6.6-26.1-.4-2.3-.9-4.7-1.5-7.1 2.4-.7 4.7-1.4 6.9-2.3 12.5-4.8 19.3-11.4 19.3-18.8s-6.8-14-19.3-18.8zM92.5 14.7c4.1 2.4 5.5 9.8 3.8 20.3-.3 2.1-.8 4.3-1.4 6.6-5.2-1.2-10.7-2-16.5-2.5-3.4-4.8-6.9-9.1-10.4-13 7.4-7.3 14.9-12.3 21-12.3 1.3 0 2.5.3 3.5.9zM81.3 74c-1.8 3.2-3.9 6.4-6.1 9.6-3.7.3-7.4.4-11.2.4-3.9 0-7.6-.1-11.2-.4-2.2-3.2-4.2-6.4-6-9.6-1.9-3.3-3.7-6.7-5.3-10 1.6-3.3 3.4-6.7 5.3-10 1.8-3.2 3.9-6.4 6.1-9.6 3.7-.3 7.4-.4 11.2-.4 3.9 0 7.6.1 11.2.4 2.2 3.2 4.2 6.4 6 9.6 1.9 3.3 3.7 6.7 5.3 10-1.7 3.3-3.4 6.6-5.3 10zm8.3-3.3c1.5 3.5 2.7 6.9 3.8 10.3-3.4.8-7 1.4-10.8 1.9 1.2-1.9 2.5-3.9 3.6-6 1.2-2.1 2.3-4.2 3.4-6.2zM64 97.8c-2.4-2.6-4.7-5.4-6.9-8.3 2.3.1 4.6.2 6.9.2 2.3 0 4.6-.1 6.9-.2-2.2 2.9-4.5 5.7-6.9 8.3zm-18.6-15c-3.8-.5-7.4-1.1-10.8-1.9 1.1-3.3 2.3-6.8 3.8-10.3 1.1 2 2.2 4.1 3.4 6.1 1.2 2.2 2.4 4.1 3.6 6.1zm-7-25.5c-1.5-3.5-2.7-6.9-3.8-10.3 3.4-.8 7-1.4 10.8-1.9-1.2 1.9-2.5 3.9-3.6 6-1.2 2.1-2.3 4.2-3.4 6.2zM64 30.2c2.4 2.6 4.7 5.4 6.9 8.3-2.3-.1-4.6-.2-6.9-.2-2.3 0-4.6.1-6.9.2 2.2-2.9 4.5-5.7 6.9-8.3zm22.2 21l-3.6-6c3.8.5 7.4 1.1 10.8 1.9-1.1 3.3-2.3 6.8-3.8 10.3-1.1-2.1-2.2-4.2-3.4-6.2zM31.7 35c-1.7-10.5-.3-17.9 3.8-20.3 1-.6 2.2-.9 3.5-.9 6 0 13.5 4.9 21 12.3-3.5 3.8-7 8.2-10.4 13-5.8.5-11.3 1.4-16.5 2.5-.6-2.3-1-4.5-1.4-6.6zM7 64c0-4.7 5.7-9.7 15.7-13.4 2-.8 4.2-1.5 6.4-2.1 1.6 5 3.6 10.3 6 15.6-2.4 5.3-4.5 10.5-6 15.5C15.3 75.6 7 69.6 7 64zm28.5 49.3c-4.1-2.4-5.5-9.8-3.8-20.3.3-2.1.8-4.3 1.4-6.6 5.2 1.2 10.7 2 16.5 2.5 3.4 4.8 6.9 9.1 10.4 13-7.4 7.3-14.9 12.3-21 12.3-1.3 0-2.5-.3-3.5-.9zM96.3 93c1.7 10.5.3 17.9-3.8 20.3-1 .6-2.2.9-3.5.9-6 0-13.5-4.9-21-12.3 3.5-3.8 7-8.2 10.4-13 5.8-.5 11.3-1.4 16.5-2.5.6 2.3 1 4.5 1.4 6.6zm9-15.6c-2 .8-4.2 1.5-6.4 2.1-1.6-5-3.6-10.3-6-15.6 2.4-5.3 4.5-10.5 6-15.5 13.8 4 22.1 10 22.1 15.6 0 4.7-5.8 9.7-15.7 13.4z"/></g></svg><text x="655.0" y="366" fill="#1a1816" font-size="11.5" text-anchor="middle" font-family="Inter, Segoe UI, Helvetica Neue, Helvetica, Arial, sans-serif">React</text></g><g class="tx" style="animation-delay:0.44s"><rect x="711.0" y="300" width="94" height="86" rx="11" fill="#f6f4f0" stroke="#009688" stroke-opacity="0.32" stroke-width="1" /><rect x="737.0" y="377" width="42" height="3" rx="1.5" fill="#009688" fill-opacity="0.9" /><svg x="743.0" y="313.0" width="30" height="30" viewBox="0 0 128 128" overflow="visible"><path d="M56.813 127.586c-1.903-.227-3.899-.52-4.434-.652a48.078 48.078 0 00-2.375-.5 36.042 36.042 0 01-2.703-.633c-4.145-1.188-4.442-1.285-7.567-2.563-2.875-1.172-8.172-3.91-9.984-5.156-.496-.344-.96-.621-1.031-.621-.07 0-1.23-.816-2.578-1.813-8.57-6.343-15.004-14.043-19.653-23.527-.8-1.629-1.453-3.074-1.453-3.21 0-.134-.144-.505-.32-.817-.363-.649-.88-2.047-1.297-3.492a20.047 20.047 0 00-.625-1.813c-.195-.46-.352-1.02-.352-1.246 0-.227-.195-.965-.433-1.645-.238-.675-.43-1.472-.43-1.77 0-.296-.187-1.32-.418-2.276C.598 73.492 0 67.379 0 63.953c0-3.422.598-9.535 1.16-11.894.23-.957.418-2 .418-2.32 0-.321.145-.95.32-1.4.18-.448.41-1.253.516-1.788.11-.535.36-1.457.563-2.055l.59-1.726c.433-1.293.835-2.387 1.027-2.813.11-.238.539-1.21.957-2.16.676-1.535 2.125-4.43 2.972-5.945.309-.555.426-.739 2.098-3.352 2.649-4.148 7.176-9.309 11.39-12.988 1.485-1.297 6.446-5.063 6.669-5.063.062 0 .53-.281 1.043-.625 1.347-.902 2.668-1.668 4.39-2.531a53.06 53.06 0 001.836-.953c.285-.164.82-.41 3.567-1.64.605-.27 1.257-.516 3.136-1.173.414-.144 1.246-.449 1.84-.672.598-.222 1.301-.406 1.563-.406.258 0 .937-.18 1.508-.402.57-.223 1.605-.477 2.304-.563.696-.082 1.621-.277 2.055-.43.43-.148 1.61-.34 2.621-.425a72.572 72.572 0 003.941-.465c2.688-.394 8.532-.394 11.192 0a75.02 75.02 0 003.781.445c.953.079 2.168.278 2.703.442.535.16 1.461.36 2.055.433.594.079 1.594.325 2.222.551.63.23 1.344.414 1.59.414s.754.137 1.125.309c.375.168 1.168.449 1.766.625.594.18 1.613.535 2.27.797.652.261 1.527.605 1.945.761.77.29 6.46 3.137 7.234 3.622 6.281 3.917 9.512 6.476 13.856 10.964 5.238 5.414 8.715 10.57 12.254 18.16.25.536.632 1.329.851 1.758.215.434.395.942.395 1.13 0 .19.18.76.402 1.269.602 1.383 1.117 2.957 1.36 4.16.12.59.343 1.32.495 1.621.153.3.332 1.063.403 1.688.07.624.277 1.648.453 2.269 1.02 3.531 1.527 13.934.91 18.535-.183 1.367-.39 3.02-.46 3.672-.118 1.117-.708 4.004-1.212 5.945l-.52 2.055c-.98 3.957-3.402 9.594-6.359 14.809-1.172 2.07-5.101 7.668-5.843 8.324-.067.058-.399.45-.735.863-.336.418-1.414 1.586-2.39 2.594-4.301 4.441-7.77 7.187-13.86 10.969-.722.449-6.847 3.441-7.992 3.906-.594.238-1.586.64-2.203.89-.613.247-1.297.454-1.512.458-.215.003-.781.195-1.258.425-.476.23-1.082.422-1.351.426-.266.004-1.043.192-1.727.418-.683.23-1.633.477-2.11.55-.476.075-1.495.278-2.269.45-.773.172-3.11.508-5.187.746a59.06 59.06 0 01-13.945-.031zm4.703-12.5c.3-.234.609-.7.691-1.027.18-.723 29.234-58.97 29.781-59.7.461-.617.504-1.605.082-1.953-.222-.187-3.004-.246-10.43-.234-5.57.012-10.253.016-10.406.012-.226-.008-.273-3.73-.25-19.672.016-10.817-.035-19.766-.113-19.89-.078-.126-.383-.227-.68-.227-.418 0-.613.18-.87.808-.485 1.168-1.825 3.82-8.348 16.485a3554.569 3554.569 0 00-4.055 7.89c-1.156 2.262-2.98 5.813-4.047 7.89a8751.248 8751.248 0 00-8.598 16.759c-4.933 9.636-5.53 10.785-5.742 11.039-.41.496-.633 1.64-.402 2.07.21.394.629.41 11.043.394 5.953-.007 10.863.024 10.914.07.137.141.086 37.31-.055 38.196-.093.582-.031.89.235 1.156.46.461.586.457 1.25-.066zm0 0" fill="#049688"/></svg><text x="758.0" y="366" fill="#1a1816" font-size="11.5" text-anchor="middle" font-family="Inter, Segoe UI, Helvetica Neue, Helvetica, Arial, sans-serif">FastAPI</text></g><g class="tx" style="animation-delay:0.46s"><rect x="814.0" y="300" width="94" height="86" rx="11" fill="#f6f4f0" stroke="#F05032" stroke-opacity="0.32" stroke-width="1" /><rect x="840.0" y="377" width="42" height="3" rx="1.5" fill="#F05032" fill-opacity="0.9" /><svg x="846.0" y="313.0" width="30" height="30" viewBox="0 0 128 128" overflow="visible"><path fill="#F34F29" d="M124.737 58.378L69.621 3.264c-3.172-3.174-8.32-3.174-11.497 0L46.68 14.71l14.518 14.518c3.375-1.139 7.243-.375 9.932 2.314 2.703 2.706 3.461 6.607 2.294 9.993l13.992 13.993c3.385-1.167 7.292-.413 9.994 2.295 3.78 3.777 3.78 9.9 0 13.679a9.673 9.673 0 01-13.683 0 9.677 9.677 0 01-2.105-10.521L68.574 47.933l-.002 34.341a9.708 9.708 0 012.559 1.828c3.778 3.777 3.778 9.898 0 13.683-3.779 3.777-9.904 3.777-13.679 0-3.778-3.784-3.778-9.905 0-13.683a9.65 9.65 0 013.167-2.11V47.333a9.581 9.581 0 01-3.167-2.111c-2.862-2.86-3.551-7.06-2.083-10.576L41.056 20.333 3.264 58.123a8.133 8.133 0 000 11.5l55.117 55.114c3.174 3.174 8.32 3.174 11.499 0l54.858-54.858a8.135 8.135 0 00-.001-11.501z"/></svg><text x="861.0" y="366" fill="#1a1816" font-size="11.5" text-anchor="middle" font-family="Inter, Segoe UI, Helvetica Neue, Helvetica, Arial, sans-serif">Git</text></g><g class="tx" style="animation-delay:0.48s"><rect x="917.0" y="300" width="94" height="86" rx="11" fill="#f6f4f0" stroke="#1a1816" stroke-opacity="0.32" stroke-width="1" /><rect x="943.0" y="377" width="42" height="3" rx="1.5" fill="#1a1816" fill-opacity="0.9" /><svg x="949.0" y="313.0" width="30" height="30" viewBox="0 0 128 128" overflow="visible"><g fill="#181616"><path fill-rule="evenodd" clip-rule="evenodd" d="M64 5.103c-33.347 0-60.388 27.035-60.388 60.388 0 26.682 17.303 49.317 41.297 57.303 3.017.56 4.125-1.31 4.125-2.905 0-1.44-.056-6.197-.082-11.243-16.8 3.653-20.345-7.125-20.345-7.125-2.747-6.98-6.705-8.836-6.705-8.836-5.48-3.748.413-3.67.413-3.67 6.063.425 9.257 6.223 9.257 6.223 5.386 9.23 14.127 6.562 17.573 5.02.542-3.903 2.107-6.568 3.834-8.076-13.413-1.525-27.514-6.704-27.514-29.843 0-6.593 2.36-11.98 6.223-16.21-.628-1.52-2.695-7.662.584-15.98 0 0 5.07-1.623 16.61 6.19C53.7 35 58.867 34.327 64 34.304c5.13.023 10.3.694 15.127 2.033 11.526-7.813 16.59-6.19 16.59-6.19 3.287 8.317 1.22 14.46.593 15.98 3.872 4.23 6.215 9.617 6.215 16.21 0 23.194-14.127 28.3-27.574 29.796 2.167 1.874 4.097 5.55 4.097 11.183 0 8.08-.07 14.583-.07 16.572 0 1.607 1.088 3.49 4.148 2.897 23.98-7.994 41.263-30.622 41.263-57.294C124.388 32.14 97.35 5.104 64 5.104z"/><path d="M26.484 91.806c-.133.3-.605.39-1.035.185-.44-.196-.685-.605-.543-.906.13-.31.603-.395 1.04-.188.44.197.69.61.537.91zm2.446 2.729c-.287.267-.85.143-1.232-.28-.396-.42-.47-.983-.177-1.254.298-.266.844-.14 1.24.28.394.426.472.984.17 1.255zM31.312 98.012c-.37.258-.976.017-1.35-.52-.37-.538-.37-1.183.01-1.44.373-.258.97-.025 1.35.507.368.545.368 1.19-.01 1.452zm3.261 3.361c-.33.365-1.036.267-1.552-.23-.527-.487-.674-1.18-.343-1.544.336-.366 1.045-.264 1.564.23.527.486.686 1.18.333 1.543zm4.5 1.951c-.147.473-.825.688-1.51.486-.683-.207-1.13-.76-.99-1.238.14-.477.823-.7 1.512-.485.683.206 1.13.756.988 1.237zm4.943.361c.017.498-.563.91-1.28.92-.723.017-1.308-.387-1.315-.877 0-.503.568-.91 1.29-.924.717-.013 1.306.387 1.306.88zm4.598-.782c.086.485-.413.984-1.126 1.117-.7.13-1.35-.172-1.44-.653-.086-.498.422-.997 1.122-1.126.714-.123 1.354.17 1.444.663zm0 0"/></g></svg><text x="964.0" y="366" fill="#1a1816" font-size="11.5" text-anchor="middle" font-family="Inter, Segoe UI, Helvetica Neue, Helvetica, Arial, sans-serif">GitHub</text></g><text x="26" y="347.0" fill="#5c564f" font-size="10.50" font-family="JetBrains Mono, SFMono-Regular, Consolas, Liberation Mono, Menlo, monospace" letter-spacing="1.60">ENTERPRISE &#38; CLOUD</text>
  <rect x="0.75" y="0.75" width="1198.5" height="410.5" rx="14" fill="none" stroke="#e2ddd5" stroke-width="1.5" /></svg>
